<svg width="43" height="42" viewBox="0 0 43 42" fill="none" xmlns="http://www.w3.org/2000/svg">
<path d="M3.26342 42C2.89024 41.8317 2.7 41.5537 2.67073 41.1293C2.6561 40.9098 2.62683 40.6902 2.59756 40.4854C2.58293 40.3829 2.56829 40.2805 2.56098 40.1854C2.20244 37.1195 1.8439 34.0537 1.48537 30.9805L1.37561 30.0293C1.02439 27.0512 0.67317 24.0659 0.321951 21.0805C0.256097 20.5098 0.17561 19.939 0.0951222 19.3829C0.0658539 19.1488 0.0292683 18.9146 0 18.6805V18.0659C0.212195 17.7 0.512196 17.5317 0.958537 17.5317C1.00244 17.5317 1.05366 17.5317 1.10488 17.539C1.17805 17.5463 1.26585 17.5463 1.36098 17.5463C1.43415 17.5463 1.5 17.5463 1.57317 17.5463C1.63902 17.5463 1.71219 17.5463 1.77805 17.5463C2.56097 17.5463 2.71463 17.4 2.71463 16.6098V1.07561C2.71463 0.204879 2.91219 0 3.79024 0H38.2024C39.1244 0 39.3146 0.190243 39.3146 1.11951V16.5732C39.3146 16.6683 39.3146 16.7634 39.3146 16.8585C39.3293 17.2976 39.5707 17.539 39.9951 17.539H40.0098C40.2146 17.539 40.4268 17.5317 40.6317 17.5317C40.8073 17.5317 40.9829 17.5317 41.1585 17.539C41.4585 17.5463 41.7 17.6415 41.839 17.8098C41.9781 17.9707 42.0366 18.2122 42 18.4976C41.8098 20.1659 41.6049 21.8561 41.4146 23.4951L40.961 27.3146C40.7341 29.2098 40.5073 31.1049 40.2878 33L40.2805 33.0805C39.9732 35.7 39.6512 38.4146 39.3512 41.078C39.3 41.5537 39.1098 41.839 38.7512 42H3.26342ZM21 40.4927C26.3927 40.4927 31.7854 40.4927 37.1707 40.5C37.661 40.5 37.9098 40.2732 37.961 39.7902C38.0268 39.1463 38.1073 38.4951 38.1878 37.8659C38.2244 37.5366 38.2683 37.2146 38.3049 36.8854C38.4805 35.3927 38.6561 33.8927 38.8317 32.4C39 30.9878 39.161 29.5683 39.3293 28.1561L39.5122 26.5976C39.761 24.461 40.0171 22.2512 40.2805 20.0854C40.3244 19.6976 40.3244 19.4341 40.1781 19.2659C40.0244 19.0976 39.7683 19.061 39.3805 19.061H5.79512C4.69025 19.061 3.59268 19.061 2.48781 19.061C2.26098 19.061 1.97561 19.0829 1.81463 19.2732C1.69756 19.4049 1.65366 19.5951 1.69024 19.8878C1.79268 20.8024 1.90244 21.7171 2.0122 22.6317C2.07805 23.1805 2.1439 23.722 2.20244 24.2707C2.42927 26.2098 2.66341 28.1488 2.89024 30.0805L3.24146 33.0805L3.39512 34.3756C3.60732 36.1537 3.82683 37.9902 4.03171 39.7976C4.08293 40.2805 4.33902 40.5 4.82927 40.5C10.222 40.4927 15.6146 40.4927 21 40.4927ZM30.6585 17.5463C31.3756 17.5463 32.1 17.5463 32.8171 17.5463C33.1024 17.5463 33.3878 17.5171 33.5415 17.3268C33.7024 17.1293 33.6732 16.8439 33.6146 16.5585C33.139 14.1439 30.9146 12.3219 28.4268 12.3219H28.4049C25.8878 12.3293 23.7146 14.1293 23.2317 16.5878C23.1805 16.8659 23.1512 17.1512 23.2976 17.3341C23.4512 17.5171 23.7293 17.5463 24.0146 17.5463C24.739 17.5463 25.4707 17.5463 26.1951 17.5463H28.4341H30.6585ZM28.4415 10.8073C29.5683 10.8073 30.6439 11.0854 31.6463 11.6341C33.6805 12.7463 34.8805 14.5098 35.2098 16.8732C35.2756 17.3341 35.5024 17.5463 35.9268 17.5463C35.9488 17.5463 35.9707 17.5463 35.9854 17.5463C36.1024 17.539 36.2122 17.539 36.3293 17.539C36.4171 17.539 36.5122 17.539 36.6 17.539C36.6878 17.539 36.7829 17.539 36.8707 17.539H36.9293C37.639 17.539 37.7854 17.3927 37.7854 16.661C37.7854 14.7073 37.7854 12.7537 37.7854 10.7927V7.85854C37.7854 7.03902 37.6463 6.89268 36.8342 6.89268H5.07805C5.0122 6.89268 4.95366 6.89268 4.8878 6.89268C4.44878 6.90732 4.20732 7.14878 4.20732 7.58781C4.20732 10.6756 4.20732 13.7561 4.20732 16.8439C4.20732 17.3049 4.44146 17.539 4.90976 17.539C5.22439 17.539 5.53171 17.5317 5.83171 17.5317H6.84146C7.02439 17.5317 7.21463 17.5317 7.39756 17.5317C7.96829 17.5317 8.1 17.2976 8.17317 16.8146L8.18049 16.778C8.24634 16.3098 8.31219 15.8268 8.43659 15.3805C9.19024 12.6293 11.4073 10.8366 14.078 10.8073H14.1C14.4146 10.8073 14.9561 10.8951 14.9854 11.5024C15.022 12.1463 14.4732 12.2927 14.1366 12.3219L14.0122 12.3293C13.6537 12.3585 13.2805 12.3878 12.9293 12.4829C11.1659 12.9585 9.88537 14.6049 9.68049 16.6683C9.65122 16.9683 9.65854 17.1951 9.79756 17.3488C9.93659 17.5024 10.1561 17.5317 10.4488 17.5317H11.5902H13.8805C14.7585 17.5317 14.8463 17.4512 14.9415 16.5805C15.0951 15.2195 15.5634 14.0341 16.3317 13.061C17.5098 11.5683 19.0756 10.8073 20.9707 10.8073C21.4098 10.8073 21.7317 11.1 21.7463 11.5171C21.761 11.9122 21.4902 12.2268 21.0659 12.2927C20.9561 12.3073 20.8463 12.3146 20.7293 12.3219C20.6707 12.3219 20.6049 12.3293 20.5463 12.3293C19.4634 12.4098 18.5561 12.8268 17.8463 13.5659C17.1 14.3415 16.639 15.3219 16.4561 16.5585C16.4049 16.9244 16.3976 17.1659 16.5439 17.3341C16.6902 17.5024 16.9317 17.5317 17.3049 17.5317C17.8902 17.5317 18.4756 17.5317 19.061 17.5317C19.6463 17.5317 20.2317 17.5317 20.8171 17.5317C21.4171 17.5317 21.5781 17.3854 21.6512 16.7927C22.061 13.3829 24.9805 10.8073 28.4415 10.8073ZM26.4073 1.50732C22.8585 1.50732 19.3024 1.50732 15.7537 1.50732C15.2195 1.50732 15.0073 1.71951 15.0073 2.25366C15 2.76585 15.0073 3.27805 15.0073 3.78293V4.44146C15.0073 5.25366 15.1537 5.39268 15.9732 5.39268H36.9146C37.661 5.39268 37.8 5.24634 37.8 4.5V4.17805C37.8 3.52683 37.8 2.87561 37.8 2.22439C37.7927 1.70488 37.5878 1.50732 37.0756 1.50732C33.5122 1.50732 29.9561 1.50732 26.4073 1.50732ZM11.422 1.50732C11.0341 1.50732 10.6463 1.50732 10.2512 1.50732C9.84878 1.50732 9.60732 1.74878 9.60732 2.13659C9.60732 2.75854 9.60732 3.37317 9.60732 3.99512V4.74146C9.60732 5.1439 9.84878 5.38537 10.2439 5.38537C10.6756 5.39268 11.1146 5.39268 11.5463 5.39268C11.8683 5.39268 12.8488 5.39268 12.8488 5.39268C13.0537 5.39268 13.2146 5.33415 13.3244 5.21707C13.4415 5.1 13.5 4.93171 13.4927 4.71219C13.4927 4.47805 13.4927 4.2439 13.4927 4.00976C13.4927 3.83415 13.4927 3.65122 13.4927 3.47561V3.03659C13.4927 2.7439 13.4927 2.45122 13.4927 2.15122C13.4854 1.74146 13.2585 1.50732 12.8634 1.50732C12.3805 1.50732 11.9049 1.50732 11.422 1.50732ZM7.42683 1.50732C6.57073 1.50732 5.72195 1.50732 4.86585 1.50732C4.44878 1.50732 4.21463 1.74146 4.21463 2.17317V4.73415C4.21463 5.15854 4.44878 5.39268 4.88049 5.39268H5.89756C6.41707 5.39268 6.92927 5.39268 7.44878 5.39268C7.86585 5.39268 8.10732 5.1439 8.10732 4.72683V3.49024V3.06585C8.10732 2.78049 8.10732 2.49512 8.10732 2.21707C8.10732 1.99024 8.04878 1.81463 7.93171 1.69756C7.80732 1.56585 7.63902 1.50732 7.42683 1.50732Z" fill="black"/>
<path d="M32.8108 24.4608C24.9377 24.4608 17.0572 24.4608 9.184 24.4608C9.01571 24.4608 8.82546 24.4535 8.64985 24.4096C8.30595 24.3291 8.07912 24.0071 8.10107 23.6486C8.12302 23.2974 8.40107 23.0047 8.75229 22.9681C8.86937 22.9535 8.99376 22.9535 9.10351 22.9535H32.8108C33.8864 22.9535 33.8938 23.5023 33.8938 23.6852C33.9011 23.8974 33.8352 24.0657 33.7181 24.1901C33.5499 24.3657 33.2352 24.4608 32.8108 24.4608Z" fill="black"/>
</svg>
