<svg width="54" height="57" viewBox="0 0 54 57" fill="none" xmlns="http://www.w3.org/2000/svg">
<path d="M5.23978 32.1358C4.76987 32.1358 4.44834 31.7648 4.4401 31.2125C4.42361 29.2751 4.42361 27.4779 4.4401 25.7136C4.44834 25.153 4.75338 24.8068 5.23978 24.8068H5.25627C5.9158 24.815 6.02298 25.4003 6.02298 25.7466C6.03122 26.3814 6.03122 27.0244 6.03122 27.6427C6.03122 27.9066 6.03122 28.1704 6.03122 28.4342C6.03122 28.7062 6.03122 28.9865 6.03122 29.2586C6.03122 29.8934 6.03122 30.5447 6.02298 31.1795C6.01473 31.7731 5.73443 32.1193 5.24803 32.1193H5.23978V32.1358Z" fill="black"/>
<path d="M5.23978 18.6812C4.74513 18.6812 4.44834 18.3267 4.4401 17.7331C4.42361 16.0266 4.42361 14.2624 4.4401 12.3415C4.44834 11.7314 4.75338 11.3522 5.23978 11.3439C5.72619 11.3439 6.02297 11.7149 6.03122 12.3332C6.03946 12.9515 6.03946 13.5781 6.03122 14.1882C6.03122 14.4685 6.03122 14.7488 6.03122 15.0291C6.03122 15.2929 6.03122 15.5567 6.03122 15.8205C6.03122 16.4471 6.03122 17.0901 6.02298 17.7249C6.01473 18.1453 5.88283 18.6565 5.26451 18.6812H5.23978Z" fill="black"/>
<path d="M39.8228 24.0976C39.4353 24.0976 39.3611 24.0729 39.3529 23.2155C39.3529 22.9847 39.3447 22.7538 39.3117 22.5312L39.1963 21.781L38.5615 22.2015C38.4131 22.3004 38.2729 22.3911 38.141 22.4818C37.869 22.6631 37.6134 22.8363 37.3578 23.0012C37.1929 23.1083 37.0281 23.166 36.8961 23.166C36.756 23.166 36.6406 23.1001 36.5499 22.9599C36.4757 22.8363 36.3108 22.5807 36.8219 22.2344C37.1187 22.0283 37.4155 21.8305 37.7123 21.6326C38.0668 21.3935 38.4296 21.1545 38.7841 20.9154C39.1468 20.6598 39.3282 20.4042 39.3364 20.1322C39.3611 19.2088 39.3529 18.2773 39.3529 17.288V15.1939L36.3108 18.2443C36.047 18.5081 35.7914 18.7719 35.5194 19.0275C35.3133 19.2253 35.1154 19.3408 34.9588 19.3408C34.8681 19.3408 34.7774 19.2913 34.6867 19.2006C34.6043 19.1182 34.3652 18.8626 34.8763 18.3515C35.4122 17.8156 35.9481 17.2715 36.4839 16.7356C36.7807 16.4388 37.0775 16.142 37.3743 15.8452C37.4567 15.7628 37.5309 15.6804 37.6216 15.5732C37.6711 15.5155 37.737 15.4413 37.8112 15.3671L38.5532 14.5509C38.5532 14.5509 36.0223 14.5509 35.7502 14.5509C35.1649 14.5509 34.4724 14.5509 33.7634 14.5674C33.4089 14.5756 33.1616 14.8642 32.9802 15.1198C32.7329 15.4743 32.4938 15.837 32.2547 16.1915C32.0568 16.4883 31.859 16.7851 31.6529 17.0819C31.5622 17.2138 31.3808 17.4364 31.1747 17.4364C31.1005 17.4364 31.0181 17.4034 30.9274 17.3539C30.5976 17.1478 30.7213 16.8016 30.8862 16.546C30.9604 16.4223 31.0428 16.3069 31.1252 16.1832L31.2489 15.9936C31.3478 15.837 31.8672 15.0456 31.8672 15.0456L32.197 14.5427H31.2984C31.1665 14.5427 31.0428 14.5427 30.9274 14.5427C30.812 14.5427 30.713 14.5427 30.6224 14.5427C30.5152 14.5427 30.4163 14.5427 30.3173 14.5344C30.1772 14.5262 29.7402 14.4767 29.7402 14.0727C29.7402 13.7595 30.0205 13.6193 30.2843 13.6028C30.375 13.5946 30.474 13.5946 30.5976 13.5946C30.6883 13.5946 30.7707 13.5946 30.8697 13.5946H30.8862C31.0098 13.5946 31.1417 13.6028 31.2819 13.6028H32.1805C32.1805 13.6028 31.5045 12.5723 31.422 12.4487C31.2407 12.1684 31.0675 11.9128 30.9027 11.649C30.7708 11.4429 30.713 11.245 30.746 11.1049C30.7707 11.0059 30.8367 10.9152 30.9521 10.8493C31.0346 10.7998 31.1088 10.7751 31.183 10.7751C31.3973 10.7751 31.5869 10.9977 31.6776 11.1378C31.859 11.4099 32.0403 11.6819 32.2217 11.954C32.4608 12.3167 32.7081 12.6877 32.9637 13.0587C33.0544 13.1824 33.3759 13.5863 33.8046 13.5946C34.4641 13.6111 35.1237 13.6111 35.6265 13.6111C35.8821 13.6111 36.4922 13.6111 36.4922 13.6111C36.7972 13.6111 37.1105 13.6111 37.432 13.6111H38.5697L37.7783 12.7867C37.6793 12.6877 37.5969 12.597 37.5309 12.5228C37.4238 12.4074 37.3331 12.3167 37.2424 12.2261C36.9621 11.9458 36.6736 11.6572 36.3933 11.3769C35.8739 10.8658 35.3462 10.3299 34.8186 9.80228C34.3899 9.36534 34.6208 9.11802 34.7032 9.03558C34.8021 8.9284 34.9011 8.87894 35 8.87894C35.1401 8.87894 35.3133 8.97787 35.4946 9.15099C36.014 9.66213 36.5334 10.1815 37.0445 10.6926L37.061 10.7091C37.3743 11.0224 37.6876 11.3357 38.0009 11.649C38.0915 11.7397 38.1905 11.8303 38.3141 11.9375C38.3801 11.9952 38.4378 12.0447 38.512 12.1106L39.3282 12.8444V11.7479C39.3282 11.4264 39.3282 11.1213 39.3282 10.8081C39.3282 9.85999 39.3364 8.97787 39.3117 8.0875C39.2952 7.67529 38.9242 7.36201 38.7593 7.25484C38.3966 6.99927 38.0256 6.75195 37.6711 6.51287C37.3908 6.3315 37.1187 6.14188 36.8467 5.96051C36.6571 5.8286 36.3768 5.56479 36.5911 5.22678C36.6818 5.08663 36.789 5.02068 36.9291 5.02068C37.0528 5.02068 37.2094 5.07014 37.3578 5.16907C37.6134 5.32571 37.869 5.49884 38.1575 5.68845C38.2894 5.77914 38.4296 5.86982 38.5862 5.96875L39.3364 6.4634V5.56479C39.3364 5.42464 39.3364 5.30098 39.3364 5.17732C39.3364 4.94648 39.3282 4.74862 39.3447 4.55901C39.3529 4.36115 39.4353 4.02314 39.7981 4.01489H39.8146C40.0619 4.01489 40.2433 4.221 40.2762 4.54252C40.2927 4.71565 40.2927 4.9135 40.2845 5.14434C40.2845 5.268 40.2762 5.40815 40.2762 5.5483V6.44692C40.2762 6.44692 41.3315 5.75441 41.4716 5.66372C41.7437 5.48235 41.991 5.32571 42.2301 5.16907C42.395 5.0619 42.5516 5.01243 42.6753 5.01243C42.766 5.01243 42.8896 5.03717 43.0051 5.21029C43.0793 5.31747 43.104 5.4164 43.0875 5.51533C43.0628 5.66372 42.9309 5.82036 42.7248 5.96051C42.5104 6.1089 42.2961 6.24906 42.0735 6.38921C41.6695 6.65302 41.2408 6.93332 40.8451 7.23835C40.5318 7.47743 40.301 7.89788 40.2845 8.26887C40.2433 9.51373 40.2762 10.602 40.3999 11.6902L40.5153 12.696L43.5492 9.6374C43.5986 9.57969 43.6563 9.53022 43.7058 9.47251C43.846 9.33236 43.9861 9.18397 44.1263 9.06031C44.2747 8.9284 44.4313 8.8542 44.555 8.8542C44.6621 8.8542 44.7611 8.90367 44.86 9.0026C45.0743 9.21695 45.0496 9.45603 44.794 9.71984C44.2499 10.2722 43.6893 10.8328 43.1452 11.3769L43.1287 11.3934C42.8402 11.6819 42.5434 11.9787 42.2548 12.2673C42.1642 12.358 42.0817 12.4487 41.9663 12.5723C41.9086 12.6383 41.8509 12.7042 41.7849 12.7702L41.0347 13.5863C41.0347 13.5863 43.6316 13.5863 43.9119 13.5863C44.4808 13.5863 45.1485 13.5863 45.841 13.5699C46.1873 13.5616 46.4594 13.2731 46.6325 13.034C46.8798 12.6795 47.1189 12.3167 47.358 11.9622C47.5476 11.6737 47.7372 11.3934 47.9268 11.1213C48.034 10.9647 48.2071 10.7668 48.4132 10.7668C48.4874 10.7668 48.5699 10.7916 48.6523 10.8493C48.7677 10.9235 48.8337 11.0059 48.8584 11.1049C48.8914 11.245 48.8337 11.4429 48.7018 11.6572C48.5369 11.9128 48.372 12.1684 48.1741 12.4569L47.4157 13.5946H48.3225C48.4544 13.5946 48.5781 13.5946 48.6935 13.5946C48.7924 13.5946 48.8749 13.5946 48.9656 13.5946C49.0727 13.5946 49.1717 13.5946 49.2624 13.6028C49.4108 13.6111 49.8889 13.677 49.8642 14.0975C49.8559 14.3778 49.6498 14.5344 49.2541 14.5509C49.1552 14.5509 49.0645 14.5592 48.9656 14.5592C48.8831 14.5592 48.7924 14.5592 48.7018 14.5592C48.5863 14.5592 48.4709 14.5592 48.3308 14.5592H47.4734L47.9598 15.3094C48.1329 15.5732 48.2813 15.804 48.4215 16.0266L48.7018 16.4635C49.1222 17.1066 48.8172 17.3127 48.71 17.3786C48.6276 17.4281 48.5534 17.4611 48.4792 17.4611C48.3143 17.4611 48.1164 17.2962 47.9268 17.0159C47.7702 16.7851 47.6135 16.5542 47.4569 16.3152C47.1848 15.9029 46.9128 15.4907 46.6325 15.095C46.55 14.9796 46.245 14.5921 45.8246 14.5839C45.1898 14.5674 44.555 14.5674 44.0768 14.5674C43.813 14.5674 43.5409 14.5674 43.2771 14.5674H42.7165C42.5104 14.5674 42.2713 14.5921 41.9416 14.79L41.3727 15.128L41.8674 15.5732C41.9498 15.6474 42.0322 15.7216 42.1229 15.7958C42.2961 15.9442 42.4692 16.0926 42.6258 16.2492C43.376 16.9912 44.1263 17.7414 44.6951 18.3102C44.9342 18.5493 45.0743 18.7884 45.0743 18.9615C45.0743 19.0522 45.0249 19.1429 44.9342 19.2336C44.8105 19.349 44.7198 19.3655 44.6704 19.3655C44.5055 19.3655 44.2911 19.2336 44.0521 19.0027C43.442 18.3927 42.8402 17.7826 42.2136 17.1561L40.5153 15.4495L40.3834 16.4223C40.3752 16.4965 40.3669 16.5542 40.3504 16.6119C40.334 16.7356 40.3092 16.8428 40.3092 16.9747C40.3092 17.3045 40.3092 17.6425 40.3092 17.9805V18.0134C40.3092 18.6153 40.3092 19.2336 40.301 19.8354C40.2927 20.3548 40.4906 20.7258 40.9193 20.9896C41.5294 21.3688 42.1229 21.7728 42.8154 22.2509C43.0628 22.4241 43.3018 22.6961 43.0793 23.0259C42.9968 23.1495 42.8979 23.199 42.7577 23.199C42.6258 23.199 42.4609 23.1413 42.2961 23.0424C42.024 22.8692 41.7519 22.6879 41.4634 22.4983L40.4659 21.847L40.3504 22.5889C40.3175 22.8115 40.3092 23.0341 40.301 23.2567C40.2927 24.0646 40.2103 24.0976 39.8228 24.0976Z" fill="black"/>
<path d="M23.0222 56.9835C22.9727 56.9505 22.915 56.9176 22.8326 56.8928C21.6619 56.5218 21.0436 55.7469 20.9282 54.535C20.9199 54.4526 20.9117 54.3701 20.9117 54.2877C20.9035 54.1063 20.8952 53.9332 20.887 53.76V53.7353C20.887 53.6529 20.8787 53.5622 20.8787 53.4798L20.8622 53.1912H10.7879L10.7632 53.4633C10.7549 53.5539 10.7467 53.6364 10.7384 53.7271C10.7384 53.7271 10.7219 53.9249 10.7137 54.0074C10.7054 54.1063 10.6972 54.197 10.689 54.2959C10.6807 54.3866 10.6725 54.469 10.6642 54.5515C10.6395 54.7823 10.6148 54.9637 10.5653 55.1286C10.5158 55.3182 10.4499 55.4831 10.3674 55.6562C10.3427 55.7057 10.318 55.7469 10.285 55.7964C10.252 55.8541 10.219 55.9035 10.1778 55.953C10.1613 55.9777 10.1448 55.9942 10.1284 56.0189C10.0789 56.0767 10.0212 56.1426 9.95523 56.2086C9.91401 56.2498 9.87279 56.2828 9.83157 56.3157L9.80684 56.3322C9.79859 56.3405 9.77386 56.357 9.74913 56.3734L9.74088 56.3817L9.7244 56.3982C9.70791 56.4147 9.69966 56.4229 9.68318 56.4312L9.66669 56.4476C9.6502 56.4641 9.63371 56.4724 9.61722 56.4806L9.60073 56.4971C9.576 56.5136 9.55951 56.5301 9.53478 56.5383L9.51005 56.5548C9.49356 56.5713 9.46883 56.5795 9.45234 56.5878L9.42761 56.6043C9.40287 56.6208 9.38638 56.629 9.3699 56.6373L9.34517 56.6455L9.33692 56.6537C9.31219 56.6702 9.30394 56.6785 9.28745 56.6785H9.30394C9.27921 56.695 9.25448 56.7032 9.23799 56.7115L9.21326 56.7197C9.17204 56.7444 9.14731 56.7527 9.11433 56.7692C9.02364 56.8104 8.9412 56.8434 8.86701 56.8763C8.81754 56.9011 8.77632 56.9093 8.7351 56.9258C8.68563 56.9423 8.63617 56.9588 8.59495 56.9753H6.66582C5.99804 56.7362 5.52813 56.4476 5.19836 56.0767C5.14065 56.0107 5.09119 55.9447 5.04172 55.8788C5.0005 55.8128 4.95104 55.7386 4.90982 55.6644C4.88509 55.615 4.86035 55.5655 4.83562 55.5078C4.7944 55.4089 4.75318 55.2935 4.7202 55.1533C4.67074 54.9637 4.63776 54.7411 4.61303 54.4855C4.59654 54.2465 4.5883 54.0074 4.58005 53.7765C4.58005 53.6776 4.57181 53.5704 4.53883 53.4633C4.53059 53.4303 4.5141 53.3808 4.49761 53.3396C4.45639 53.2572 4.41517 53.1994 4.3657 53.15C4.28326 53.0593 4.1596 52.9933 3.99472 52.9356C3.21152 52.6718 2.55199 52.2843 2.04085 51.7815C1.18346 50.9406 0.746526 49.8193 0.746526 48.4426L0.738281 38.698C0.738281 28.3846 0.738282 18.8214 0.746526 9.46427C0.746526 6.66951 2.63443 4.78985 5.44569 4.77336C8.31465 4.75687 11.3485 4.74863 14.4565 4.74863C18.1252 4.74863 21.9669 4.75687 26.1962 4.7816C26.7156 4.7816 27.235 4.89702 27.7873 5.01244C28.0594 5.07015 28.3314 5.12786 28.6117 5.17732L28.7849 5.2103L28.9003 5.07839C31.6456 1.80547 35.4791 0 39.7083 0C43.1709 0 46.4933 1.22013 49.0572 3.44605C49.3457 3.70162 49.6343 3.96543 49.9063 4.24573C53.0803 7.49393 54.4736 12.1189 53.6409 16.6284L53.6245 16.7274L53.6162 16.7521C53.5997 16.8345 53.5832 16.9252 53.5667 17.0159C53.542 17.1396 53.509 17.2715 53.4843 17.3951C53.4678 17.4693 53.4513 17.5353 53.4266 17.6095C53.4266 17.6095 53.3936 17.7249 53.3854 17.7826L53.3689 17.8403C53.3524 17.9145 53.3277 17.9887 53.3112 18.0629C53.27 18.2113 53.2205 18.3597 53.171 18.5081C53.1463 18.5905 53.1133 18.6812 53.0803 18.7637C53.0391 18.8873 52.9979 19.0027 52.9484 19.1264L52.8907 19.2748C52.8248 19.4397 52.7588 19.6046 52.6846 19.7777C52.6352 19.8849 52.5939 19.992 52.5445 20.091C52.495 20.1899 52.4538 20.2888 52.4043 20.3878C52.3796 20.429 52.3631 20.4702 52.3466 20.5114L52.3219 20.5526L52.2807 20.6351L52.2394 20.734C52.2394 20.7423 52.2312 20.7423 52.2312 20.7505C52.1817 20.8494 52.1323 20.9401 52.0828 21.0226C51.8602 21.4265 51.6046 21.8305 51.3408 22.218C48.8016 25.9113 44.3663 28.2115 39.766 28.2115C36.7487 28.2115 33.8468 27.2469 31.357 25.4167L30.8789 25.0622V32.9848C30.8789 38.1127 30.8789 43.2323 30.8789 48.3601C30.8789 48.8053 30.8376 49.2258 30.7634 49.6132C30.7387 49.7204 30.714 49.8276 30.6893 49.9348C30.6645 50.0337 30.6315 50.1409 30.5986 50.248C30.5821 50.2975 30.5656 50.347 30.5409 50.3964L30.5161 50.4459C30.4831 50.5283 30.4502 50.6108 30.4089 50.685L30.376 50.7427C30.343 50.8169 30.3018 50.8911 30.2606 50.957C30.1039 51.2373 29.9143 51.4847 29.7082 51.7073C29.634 51.7815 29.5516 51.8557 29.4774 51.9299C29.1476 52.2184 28.7601 52.4575 28.3232 52.6471C27.3174 53.084 26.9794 53.6034 26.9794 54.6834C26.9794 55.9035 26.0973 56.5136 25.3635 56.8186C25.2481 56.8681 25.1409 56.9093 25.0255 56.9505L24.9019 57H23.0222V56.9835ZM5.89911 53.4962C5.90736 53.6199 5.89911 53.7518 5.89911 53.8755C5.88263 54.4361 5.86614 55.0709 6.5504 55.4831C6.78124 55.6232 7.15222 55.6974 7.59741 55.6974C7.81175 55.6974 8.55373 55.6727 8.90823 55.3677C9.45234 54.906 9.41936 54.3207 9.38639 53.8507C9.37814 53.7271 9.3699 53.6117 9.37814 53.4962L9.38639 53.1912H5.89087L5.89911 53.4962ZM22.2967 53.4303C22.1153 54.469 22.2802 55.1121 22.8326 55.4501C23.0717 55.5985 23.4839 55.6892 23.9703 55.6892C24.2258 55.6892 24.8442 55.6644 25.1822 55.4089C25.784 54.9554 25.7428 54.3536 25.718 53.8755C25.7098 53.7436 25.7015 53.6199 25.7098 53.4962L25.718 53.183H22.3462L22.2967 53.4303ZM2.10681 22.6549C2.09857 22.7044 2.09032 22.7456 2.08208 22.7703C2.06559 22.8363 2.05734 22.894 2.05734 22.9599C2.05734 25.021 2.05734 27.0738 2.05734 29.1348C2.05734 35.491 2.0491 42.0699 2.06559 48.558C2.06559 50.5036 3.42587 51.8062 5.43744 51.8062H26.1962C28.1995 51.8062 29.5516 50.4789 29.5516 48.5003C29.5598 41.9709 29.5598 35.3261 29.5598 28.8957V24.2543C29.5598 23.3721 28.5787 22.4076 27.6884 22.4076H2.15627L2.10681 22.6549ZM39.898 26.8017C39.9639 26.8017 40.0216 26.8017 40.0876 26.8017C46.7736 26.8017 52.5115 21.0473 52.6104 14.2459C52.7176 7.21362 47.0621 1.4015 40.0134 1.28609C39.9392 1.28609 39.8732 1.28609 39.8073 1.28609C32.7997 1.27784 27.0866 7.00752 27.0618 14.0563C27.0536 17.4611 28.3644 20.6516 30.7552 23.0506C33.1625 25.4662 36.3942 26.8017 39.8485 26.8017H39.898ZM15.8168 6.08418C12.412 6.08418 9.00716 6.08418 5.61057 6.08418C5.23958 6.08418 4.81913 6.09242 4.42341 6.1996C2.94771 6.58707 2.05734 7.81545 2.05734 9.48901C2.0491 12.3827 2.0491 15.2846 2.05734 18.0959V20.2888C2.05734 20.396 2.06559 20.5032 2.07383 20.6186C2.08207 20.6681 2.08208 20.7258 2.09032 20.7752L2.10681 21.0555H27.4988L27.2927 20.6186C25.0255 15.8782 25.1822 11.311 27.7708 6.66127L27.9934 6.2573L27.5317 6.21608C27.3504 6.19959 27.1855 6.18311 27.0288 6.15838C26.6826 6.11715 26.3528 6.08418 26.0231 6.08418C22.6265 6.08418 19.2216 6.08418 15.8168 6.08418Z" fill="black"/>
</svg>
