<svg width="18" height="17" viewBox="0 0 18 17" fill="none" xmlns="http://www.w3.org/2000/svg">
<g clip-path="url(#clip0_3668_3322)">
<path fill-rule="evenodd" clip-rule="evenodd" d="M14.8492 3.72072H3.26072C2.86072 3.72072 2.53645 4.01443 2.53645 4.37673V12.2489C2.53645 12.6112 2.86072 12.9049 3.26072 12.9049H14.8492C15.2492 12.9049 15.5734 12.6112 15.5734 12.2489V4.37673C15.5734 4.01443 15.2492 3.72072 14.8492 3.72072ZM3.26072 2.40869C2.0607 2.40869 1.08789 3.28981 1.08789 4.37673V12.2489C1.08789 13.3358 2.0607 14.2169 3.26072 14.2169H14.8492C16.0492 14.2169 17.022 13.3358 17.022 12.2489V4.37673C17.022 3.28981 16.0492 2.40869 14.8492 2.40869H3.26072Z" fill="white"/>
<path fill-rule="evenodd" clip-rule="evenodd" d="M4.15226 5.26877C4.40835 4.99044 4.86505 4.95284 5.17234 5.18478L8.59066 7.76489C8.85929 7.9676 9.24939 7.9676 9.51802 7.76489L12.9363 5.18478C13.2436 4.95284 13.7004 4.99044 13.9564 5.26877C14.2125 5.54711 14.171 5.96076 13.8637 6.19271L10.4453 8.77278C9.63956 9.38104 8.46913 9.38104 7.66329 8.77278L4.245 6.19271C3.9377 5.96076 3.89619 5.54711 4.15226 5.26877Z" fill="white"/>
</g>
<defs>
<clipPath id="clip0_3668_3322">
<rect width="17.3827" height="15.7443" fill="white" transform="translate(0.363281 0.440674)"/>
</clipPath>
</defs>
</svg>
