<svg width="17" height="16" viewBox="0 0 17 16" fill="none" xmlns="http://www.w3.org/2000/svg">
<g clip-path="url(#clip0_3668_3333)">
<path fill-rule="evenodd" clip-rule="evenodd" d="M11.4283 10.7701C12.3622 9.49456 13.0007 8.09266 13.0007 6.67364C13.0007 4.1375 10.9113 2.08156 8.33398 2.08156C5.75666 2.08156 3.66732 4.1375 3.66732 6.67364C3.66732 8.09266 4.30578 9.49456 5.23962 10.7701C6.16644 12.036 7.30605 13.07 8.11858 13.7248C8.25185 13.8322 8.41612 13.8322 8.54938 13.7248C9.36192 13.07 10.5015 12.036 11.4283 10.7701ZM9.39425 14.7398C11.1171 13.3513 14.334 10.2763 14.334 6.67364C14.334 3.41289 11.6477 0.769531 8.33398 0.769531C5.02028 0.769531 2.33398 3.41289 2.33398 6.67364C2.33398 10.2763 5.5509 13.3513 7.27372 14.7398C7.89838 15.2432 8.76958 15.2432 9.39425 14.7398Z" fill="white"/>
<path fill-rule="evenodd" clip-rule="evenodd" d="M8.33463 5.36158C7.59823 5.36158 7.0013 5.94899 7.0013 6.6736C7.0013 7.39823 7.59823 7.98563 8.33463 7.98563C9.07103 7.98563 9.66796 7.39823 9.66796 6.6736C9.66796 5.94899 9.07103 5.36158 8.33463 5.36158ZM5.66797 6.6736C5.66797 5.22438 6.86187 4.04956 8.33463 4.04956C9.80736 4.04956 11.0013 5.22438 11.0013 6.6736C11.0013 8.1228 9.80736 9.29765 8.33463 9.29765C6.86187 9.29765 5.66797 8.1228 5.66797 6.6736Z" fill="white"/>
</g>
<defs>
<clipPath id="clip0_3668_3333">
<rect width="16" height="15.7443" fill="white" transform="translate(0.333984 0.113525)"/>
</clipPath>
</defs>
</svg>
