<svg width="55" height="53" viewBox="0 0 55 53" fill="none" xmlns="http://www.w3.org/2000/svg">
<path d="M34.3217 18.0124H18.9811C18.2782 18.0124 17.707 18.5542 17.707 19.2192V33.5445C17.707 34.2095 18.2782 34.7513 18.9811 34.7513H34.3217C35.0246 34.7513 35.5997 34.2095 35.5997 33.5445V19.2192C35.5997 18.5542 35.0246 18.0124 34.3217 18.0124ZM23.1148 32.36H20.4628V24.3717H23.1188V32.36H23.1148ZM21.7888 23.2807C20.9381 23.2807 20.2511 22.6343 20.2511 21.8422C20.2511 21.0501 20.9381 20.4037 21.7888 20.4037C22.6355 20.4037 23.3265 21.0501 23.3265 21.8422C23.3265 22.638 22.6395 23.2807 21.7888 23.2807ZM33.0556 32.36H30.4037V28.4742C30.4037 27.5476 30.3837 26.3557 29.0258 26.3557C27.6439 26.3557 27.4322 27.3645 27.4322 28.407V32.36H24.7802V24.3717H27.3244V25.4627H27.3603C27.7158 24.835 28.5824 24.1737 29.8725 24.1737C32.5564 24.1737 33.0556 25.8289 33.0556 27.981V32.36Z" fill="white"/>
</svg>
