<svg width="55" height="53" viewBox="0 0 55 53" fill="none" xmlns="http://www.w3.org/2000/svg">
<path d="M38.6547 20.9384C38.3868 19.9298 37.5973 19.1356 36.5949 18.866C34.7781 18.3762 27.4926 18.3762 27.4926 18.3762C27.4926 18.3762 20.2073 18.3762 18.3903 18.866C17.388 19.1356 16.5985 19.9298 16.3306 20.9384C15.8438 22.7663 15.8438 26.5803 15.8438 26.5803C15.8438 26.5803 15.8438 30.3942 16.3306 32.2222C16.5985 33.2307 17.388 33.9919 18.3903 34.2614C20.2073 34.7512 27.4926 34.7512 27.4926 34.7512C27.4926 34.7512 34.778 34.7512 36.5949 34.2614C37.5973 33.9919 38.3868 33.2307 38.6547 32.2222C39.1415 30.3942 39.1415 26.5803 39.1415 26.5803C39.1415 26.5803 39.1415 22.7663 38.6547 20.9384ZM25.1099 30.043V23.1175L31.1991 26.5804L25.1099 30.043Z" fill="#FFD700"/>
</svg>
