<svg width="14" height="12" viewBox="0 0 14 12" fill="none" xmlns="http://www.w3.org/2000/svg">
<path d="M10.1829 11.1842C5.26241 11.1842 1.25977 7.5588 1.25977 3.10211C1.25977 1.77067 2.45511 0.687988 3.92511 0.687988C4.07576 0.687988 4.22467 0.699534 4.36894 0.722101C4.50974 0.742568 4.65112 0.775107 4.78903 0.818141C4.97734 0.877445 5.1193 1.02072 5.16391 1.19705L5.95714 4.32702C6.00118 4.49916 5.94613 4.67969 5.81055 4.80774C5.73175 4.88227 5.73001 4.88384 5.01152 5.22444C5.59326 6.36538 6.60435 7.27802 7.83852 7.78709C8.21515 7.1358 8.21747 7.1337 8.29974 7.06233C8.44112 6.93952 8.6416 6.89176 8.83049 6.92955L12.2867 7.64801C12.4809 7.68843 12.639 7.81648 12.7039 7.98704C12.7514 8.1109 12.7874 8.23895 12.8111 8.37068C12.8355 8.50031 12.8482 8.63466 12.8482 8.77006C12.8482 10.1015 11.6523 11.1842 10.1829 11.1842" stroke="white"/>
</svg>
