<svg width="169" height="18" viewBox="0 0 169 18" fill="none" xmlns="http://www.w3.org/2000/svg">
<path d="M2.51214 13.0194C1.98687 13.0194 1.53393 12.9004 1.1533 12.6623C0.780285 12.4163 0.494815 12.0909 0.296889 11.6862C0.098963 11.2735 0 10.8212 0 10.3292C0 9.64668 0.125607 9.04753 0.376821 8.5317C0.628034 8.00793 0.978211 7.59924 1.42735 7.30561C1.87649 7.00405 2.39795 6.85327 2.99173 6.85327C3.42564 6.85327 3.80246 6.93263 4.12219 7.09135C4.44953 7.25006 4.71216 7.4683 4.91009 7.74605C5.11563 8.0238 5.25265 8.33727 5.32117 8.68645L4.36198 8.92452C4.33153 8.57534 4.19832 8.28172 3.96233 8.04364C3.73395 7.79763 3.39519 7.67463 2.94605 7.67463C2.65678 7.67463 2.38653 7.73811 2.13532 7.86509C1.89172 7.99206 1.67857 8.17459 1.49586 8.41266C1.31316 8.6428 1.17233 8.92055 1.07337 9.24592C0.974405 9.56335 0.924924 9.92047 0.924924 10.3173C0.924924 10.6664 0.98963 10.9839 1.11904 11.2696C1.24846 11.5552 1.43496 11.7814 1.67856 11.9481C1.92978 12.1147 2.23809 12.198 2.60349 12.198C2.90038 12.198 3.17824 12.1187 3.43706 11.96C3.7035 11.8013 3.89001 11.5671 3.99658 11.2577L4.88725 11.591C4.68932 12.0512 4.37721 12.4044 3.95091 12.6504C3.53222 12.8964 3.05263 13.0194 2.51214 13.0194Z" fill="white"/>
<path d="M5.84741 12.9123L7.17199 6.96041H7.91422L7.78861 8.32933L7.65158 8.24601C7.77338 7.95238 7.94086 7.7024 8.15401 7.49607C8.36716 7.28181 8.60696 7.11912 8.87339 7.00802C9.14745 6.89692 9.41769 6.84137 9.68413 6.84137C9.80593 6.84137 9.91251 6.8493 10.0039 6.86517C10.1028 6.88105 10.1904 6.90882 10.2665 6.9485L9.99244 7.85319C9.91631 7.81351 9.82877 7.78573 9.72981 7.76986C9.63846 7.74605 9.52807 7.73415 9.39866 7.73415C9.10938 7.73415 8.83533 7.80557 8.57651 7.94841C8.32529 8.08332 8.10453 8.29362 7.91422 8.57931C7.7239 8.865 7.57926 9.23402 7.4803 9.68636L6.76092 12.9123H5.84741Z" fill="white"/>
<path d="M12.8936 13.0194C12.3684 13.0194 11.9154 12.9004 11.5348 12.6623C11.1618 12.4242 10.8763 12.1028 10.6784 11.6981C10.4804 11.2934 10.3815 10.841 10.3815 10.3411C10.3815 9.72207 10.4995 9.14672 10.7355 8.61502C10.9715 8.08332 11.314 7.65876 11.7632 7.34132C12.2199 7.01596 12.7718 6.85327 13.4189 6.85327C13.8833 6.85327 14.2791 6.95247 14.6064 7.15086C14.9414 7.34926 15.1964 7.62305 15.3715 7.97222C15.5466 8.31346 15.6341 8.70232 15.6341 9.13879C15.6341 9.2975 15.6189 9.46416 15.5885 9.63874C15.5656 9.8054 15.5276 9.97999 15.4743 10.1625H10.8268V9.32925H15.0746L14.675 9.66255C14.6978 9.56732 14.713 9.47209 14.7206 9.37686C14.7359 9.28163 14.7435 9.19037 14.7435 9.10308C14.7435 8.81739 14.6864 8.56741 14.5722 8.35314C14.4656 8.13887 14.3096 7.97222 14.104 7.85319C13.8985 7.73415 13.6511 7.67463 13.3618 7.67463C12.9888 7.67463 12.669 7.75399 12.4026 7.9127C12.1438 8.06348 11.9306 8.26982 11.7632 8.5317C11.6033 8.79358 11.4853 9.0872 11.4092 9.41257C11.3407 9.73001 11.3064 10.0514 11.3064 10.3768C11.3064 10.7339 11.3749 11.0513 11.5119 11.3291C11.6566 11.5989 11.8545 11.8132 12.1057 11.9719C12.3569 12.1227 12.6538 12.198 12.9964 12.198C13.3846 12.1901 13.7044 12.1028 13.9556 11.9362C14.2068 11.7695 14.4123 11.5513 14.5722 11.2815L15.2916 11.7814C15.1241 12.0354 14.9224 12.2576 14.6864 12.448C14.4504 12.6305 14.1801 12.7734 13.8756 12.8766C13.5787 12.9718 13.2514 13.0194 12.8936 13.0194Z" fill="white"/>
<path d="M19.087 13.0075C18.6455 13.0075 18.2572 12.8964 17.9223 12.6742C17.5873 12.452 17.3247 12.1465 17.1344 11.7576C16.9441 11.3608 16.8489 10.9045 16.8489 10.3887C16.8489 9.89666 16.9212 9.43638 17.0659 9.00785C17.2105 8.57931 17.4122 8.20236 17.6711 7.87699C17.9299 7.55162 18.2382 7.29768 18.596 7.11515C18.9538 6.93263 19.342 6.84137 19.7607 6.84137C20.0956 6.84137 20.3963 6.90089 20.6628 7.01992C20.9292 7.13896 21.15 7.30958 21.3251 7.53178C21.5002 7.74605 21.622 8.00397 21.6905 8.30553L21.9874 6.96041H22.9009L21.5763 12.9123H20.777L20.9711 11.8052C20.7884 12.1703 20.5258 12.4639 20.1832 12.6861C19.8482 12.9004 19.4828 13.0075 19.087 13.0075ZM19.3268 12.198C19.5932 12.198 19.8444 12.1266 20.0804 11.9838C20.324 11.8409 20.5372 11.6465 20.7199 11.4005C20.9102 11.1466 21.0586 10.8529 21.1652 10.5196C21.2718 10.1784 21.3251 9.81333 21.3251 9.42448C21.3251 9.06737 21.2604 8.75787 21.131 8.49599C21.0092 8.22617 20.8341 8.01984 20.6057 7.87699C20.3849 7.73415 20.1223 7.66273 19.8178 7.66273C19.5133 7.66273 19.2354 7.73415 18.9842 7.87699C18.733 8.0119 18.516 8.20236 18.3333 8.44837C18.1506 8.69438 18.006 8.98404 17.8994 9.31734C17.8005 9.64271 17.751 9.99586 17.751 10.3768C17.751 10.7656 17.8119 11.095 17.9337 11.3648C18.0555 11.6346 18.2306 11.8409 18.459 11.9838C18.6949 12.1266 18.9842 12.198 19.3268 12.198Z" fill="white"/>
<path d="M25.9407 13.0075C25.5753 13.0075 25.2632 12.9321 25.0043 12.7813C24.7455 12.6305 24.5628 12.4123 24.4562 12.1266C24.3497 11.8409 24.3382 11.4997 24.422 11.1029L25.621 5.65099L26.6144 5.3534L25.3126 11.1505C25.2365 11.5156 25.2822 11.7774 25.4497 11.9362C25.6248 12.0869 25.8417 12.1623 26.1005 12.1623C26.2909 12.1623 26.4583 12.1346 26.603 12.079C26.7476 12.0235 26.8732 11.952 26.9798 11.8647L27.1625 12.6504C26.9722 12.7853 26.7781 12.8766 26.5801 12.9242C26.3822 12.9797 26.1691 13.0075 25.9407 13.0075ZM23.9995 7.78176L24.1822 6.96041H28.0189L27.8362 7.78176H23.9995Z" fill="white"/>
<path d="M31.0031 13.0194C30.4779 13.0194 30.0249 12.9004 29.6443 12.6623C29.2713 12.4242 28.9858 12.1028 28.7879 11.6981C28.59 11.2934 28.491 10.841 28.491 10.3411C28.491 9.72207 28.609 9.14672 28.845 8.61502C29.081 8.08332 29.4235 7.65876 29.8727 7.34132C30.3294 7.01596 30.8813 6.85327 31.5284 6.85327C31.9928 6.85327 32.3886 6.95247 32.716 7.15086C33.0509 7.34926 33.3059 7.62305 33.481 7.97222C33.6561 8.31346 33.7436 8.70232 33.7436 9.13879C33.7436 9.2975 33.7284 9.46416 33.698 9.63874C33.6751 9.8054 33.6371 9.97999 33.5838 10.1625H28.9363V9.32925H33.1841L32.7845 9.66255C32.8073 9.56732 32.8225 9.47209 32.8301 9.37686C32.8454 9.28163 32.853 9.19037 32.853 9.10308C32.853 8.81739 32.7959 8.56741 32.6817 8.35314C32.5751 8.13887 32.4191 7.97222 32.2135 7.85319C32.008 7.73415 31.7606 7.67463 31.4713 7.67463C31.0983 7.67463 30.7786 7.75399 30.5121 7.9127C30.2533 8.06348 30.0402 8.26982 29.8727 8.5317C29.7128 8.79358 29.5948 9.0872 29.5187 9.41257C29.4502 9.73001 29.4159 10.0514 29.4159 10.3768C29.4159 10.7339 29.4844 11.0513 29.6215 11.3291C29.7661 11.5989 29.964 11.8132 30.2152 11.9719C30.4664 12.1227 30.7633 12.198 31.1059 12.198C31.4941 12.1901 31.8139 12.1028 32.0651 11.9362C32.3163 11.7695 32.5218 11.5513 32.6817 11.2815L33.4011 11.7814C33.2336 12.0354 33.0319 12.2576 32.7959 12.448C32.5599 12.6305 32.2897 12.7734 31.9852 12.8766C31.6883 12.9718 31.3609 13.0194 31.0031 13.0194Z" fill="white"/>
<path d="M37.1965 13.0075C36.755 13.0075 36.3667 12.8964 36.0318 12.6742C35.6968 12.452 35.4342 12.1465 35.2439 11.7576C35.0536 11.3608 34.9584 10.9045 34.9584 10.3887C34.9584 9.89666 35.0307 9.43638 35.1754 9.00785C35.32 8.57931 35.5217 8.20236 35.7806 7.87699C36.0394 7.55162 36.3477 7.29768 36.7055 7.11515C37.0633 6.93263 37.4515 6.84137 37.8702 6.84137C38.2052 6.84137 38.5059 6.90089 38.7723 7.01992C39.0387 7.13896 39.2595 7.30958 39.4346 7.53178C39.6097 7.74605 39.7315 8.00397 39.8 8.30553L40.7021 4.22255H41.6156L39.6858 12.9123H38.8865L39.0806 11.8052C38.8979 12.1703 38.6353 12.4639 38.2927 12.6861C37.9578 12.9004 37.5924 13.0075 37.1965 13.0075ZM37.4249 12.198C37.6989 12.198 37.9578 12.1266 38.2014 11.9838C38.445 11.8409 38.6581 11.6465 38.8408 11.4005C39.0235 11.1466 39.1681 10.8529 39.2747 10.5196C39.3813 10.1784 39.4346 9.81333 39.4346 9.42448C39.4346 9.06737 39.3699 8.75787 39.2405 8.49599C39.1187 8.22617 38.9436 8.01984 38.7152 7.87699C38.4944 7.73415 38.2318 7.66273 37.9273 7.66273C37.6228 7.66273 37.3449 7.73415 37.0937 7.87699C36.8425 8.0119 36.6256 8.20236 36.4429 8.44837C36.2602 8.69438 36.1155 8.98404 36.0089 9.31734C35.91 9.64271 35.8605 9.99586 35.8605 10.3768C35.8605 10.7656 35.9214 11.095 36.0432 11.3648C36.165 11.6346 36.3401 11.8409 36.5685 11.9838C36.8045 12.1266 37.0899 12.198 37.4249 12.198Z" fill="white"/>
<path d="M49.4506 6.86517C49.8617 6.86517 50.2309 6.96834 50.5582 7.17467C50.8855 7.381 51.1406 7.68256 51.3233 8.07936C51.5136 8.46821 51.6087 8.94436 51.6087 9.5078C51.6087 10.0078 51.5326 10.472 51.3804 10.9005C51.2357 11.3211 51.0302 11.6941 50.7637 12.0195C50.5049 12.3369 50.1966 12.5869 49.8388 12.7694C49.4886 12.944 49.108 13.0313 48.6969 13.0313C48.3468 13.0313 48.0346 12.9678 47.7606 12.8408C47.4942 12.7059 47.2772 12.5274 47.1097 12.3052C46.9422 12.083 46.8281 11.837 46.7672 11.5672L46.4703 12.9123H45.5568L47.4865 4.22255H48.4L47.5779 7.9127C47.753 7.61114 48.008 7.36116 48.343 7.16277C48.6779 6.96437 49.0471 6.86517 49.4506 6.86517ZM48.6855 12.21C48.9596 12.21 49.2184 12.1425 49.462 12.0076C49.7056 11.8727 49.9188 11.6862 50.1015 11.4481C50.2918 11.2021 50.4402 10.9124 50.5468 10.5791C50.6534 10.2458 50.7066 9.88079 50.7066 9.484C50.7066 9.07927 50.6381 8.74596 50.5011 8.48408C50.3717 8.21426 50.1928 8.01587 49.9644 7.8889C49.736 7.75399 49.4772 7.68653 49.1879 7.68653C48.8834 7.68653 48.6056 7.75796 48.3544 7.9008C48.1032 8.03571 47.8862 8.22617 47.7035 8.47218C47.5208 8.71819 47.38 9.01181 47.281 9.35305C47.182 9.69429 47.1326 10.0673 47.1326 10.472C47.1326 10.9878 47.262 11.4084 47.5208 11.7338C47.7872 12.0512 48.1755 12.21 48.6855 12.21Z" fill="white"/>
<path d="M52.0863 15.4716C51.797 15.4716 51.5496 15.4359 51.344 15.3644C51.1309 15.293 50.9558 15.1938 50.8188 15.0668L51.1842 14.2693C51.443 14.5153 51.7323 14.6383 52.052 14.6383C52.2956 14.6383 52.5088 14.5669 52.6915 14.424C52.8818 14.2812 53.0683 14.059 53.251 13.7574L53.7877 12.8647L52.7828 6.96041H53.6849L54.4385 11.8528L55.2379 10.4601L57.259 6.96041H58.2981L53.9818 14.0788C53.7839 14.4042 53.5783 14.6701 53.3652 14.8764C53.1596 15.0827 52.9503 15.2335 52.7371 15.3287C52.524 15.424 52.307 15.4716 52.0863 15.4716Z" fill="white"/>
<path d="M67.6515 1.10055H72.009C74.9196 1.10055 76.1266 2.7879 76.1266 5.04498C76.1266 7.73912 74.3466 8.97224 71.7447 8.97224H69.1748V13.8251H67.6515V1.10055ZM71.6056 7.5362C73.6866 7.5362 74.5422 6.46073 74.5422 5.00908C74.5422 3.39978 73.5155 2.53347 71.8455 2.53347H69.1748V7.5362H71.6056Z" fill="#FFD700"/>
<path d="M85.6178 9.32969C85.6178 9.55758 85.5842 9.87133 85.575 9.9244H79.0189C79.1992 11.5415 80.3283 12.5998 81.8607 12.5998C82.9226 12.5998 83.7354 12.1019 84.2656 11.4276L85.2587 12.2939C84.5315 13.2648 83.3672 13.9375 81.8088 13.9375C79.3856 13.9375 77.5628 12.1268 77.5628 9.46861C77.5628 6.81038 79.3428 4.99972 81.6453 4.99972C83.9478 4.99972 85.6178 6.82911 85.6178 9.32969ZM81.7232 6.33898C80.3879 6.33898 79.3184 7.23963 79.0525 8.71781H84.206C83.9829 7.2927 83.0754 6.33898 81.7232 6.33898Z" fill="#FFD700"/>
<path d="M91.6529 13.9375C88.999 13.9375 87.2358 11.9786 87.2358 9.47798C87.2358 6.97739 88.999 5.00128 91.6529 5.00128C94.1693 5.00128 96.044 6.81974 96.044 9.47798C96.044 12.1362 94.1693 13.9375 91.6529 13.9375ZM91.6529 12.5998C93.2969 12.5998 94.6063 11.3136 94.6063 9.47798C94.6063 7.64234 93.3045 6.33898 91.6529 6.33898C89.8729 6.33898 88.6735 7.73756 88.6735 9.47798C88.6735 11.2184 89.8897 12.5998 91.6529 12.5998Z" fill="#FFD700"/>
<path d="M102.592 5.00128C105.007 5.00128 106.77 6.94305 106.77 9.52168C106.77 12.1003 104.938 13.9375 102.583 13.9375C101.376 13.9375 100.366 13.413 99.6819 12.5296H99.6482V17.3653H98.2365V5.10586H99.6574V6.39205H99.691C100.401 5.4914 101.437 5.00128 102.592 5.00128ZM105.323 9.53105C105.323 7.58927 104.056 6.32961 102.429 6.32961C100.802 6.32961 99.6039 7.73756 99.6039 9.53105C99.6039 11.3245 100.939 12.6092 102.446 12.6092C104.183 12.6092 105.323 11.2886 105.323 9.53105Z" fill="#FFD700"/>
<path d="M109.065 0.636963H110.476V13.8236H109.065V0.636963Z" fill="#FFD700"/>
<path d="M120.834 9.32969C120.834 9.55758 120.8 9.87133 120.791 9.9244H114.235C114.415 11.5415 115.544 12.5998 117.077 12.5998C118.139 12.5998 118.951 12.1019 119.482 11.4276L120.475 12.2939C119.747 13.2648 118.583 13.9375 117.025 13.9375C114.602 13.9375 112.779 12.1268 112.779 9.46861C112.779 6.81038 114.559 4.99972 116.861 4.99972C119.164 4.99972 120.834 6.82911 120.834 9.32969ZM114.268 8.71781H119.422C119.199 7.2927 118.291 6.33898 116.939 6.33898C115.587 6.33898 114.534 7.23963 114.268 8.71781Z" fill="#FFD700"/>
<path d="M129.309 7.13504C130.739 7.44098 131.911 8.51645 131.911 10.3802C131.911 12.4 130.575 13.8251 127.75 13.8251H123.214V1.10055H127.28C129.72 1.10055 131.295 2.04491 131.295 4.20521C131.295 5.4555 130.661 6.63555 129.309 7.10851V7.13504ZM124.737 6.56687H127.263C128.453 6.56687 129.729 6.03304 129.729 4.51115C129.729 3.31237 128.942 2.53503 126.964 2.53503H124.737V6.56687ZM127.323 12.3906C129.103 12.3906 130.31 11.6913 130.31 10.2397C130.31 8.78805 129.291 7.96545 127.391 7.96545H124.737V12.3906H127.323Z" fill="#FFD700"/>
<path d="M138.415 5.00128C138.543 5.00128 138.663 5.00128 138.766 5.01845V6.61838C138.562 6.60121 138.348 6.59185 138.203 6.59185C136.585 6.59185 135.608 7.86867 135.608 9.6169V13.8236H134.187V5.10586H135.608V6.62775H135.642C136.276 5.59598 137.26 5.00128 138.415 5.00128Z" fill="#FFD700"/>
<path d="M148.225 5.10586V13.8251H146.864V12.4437H146.838C146.154 13.3787 145.109 13.9391 143.851 13.9391C141.497 13.9391 139.665 12.1908 139.665 9.52324C139.665 6.85564 141.428 5.00284 143.842 5.00284C145.006 5.00284 146.059 5.49296 146.769 6.40142H146.803V5.10742H148.224L148.225 5.10586ZM146.857 9.53105C146.857 7.73756 145.64 6.32961 144.005 6.32961C142.371 6.32961 141.112 7.58927 141.112 9.53105C141.112 11.2886 142.25 12.6092 143.987 12.6092C145.52 12.6092 146.857 11.376 146.857 9.53105Z" fill="#FFD700"/>
<path d="M158.445 8.65537V13.8329H157.025V9.05809C157.025 7.01173 156.186 6.32961 154.936 6.32961C153.327 6.32961 152.256 7.50967 152.256 9.46861V13.8236H150.835V5.10586H152.256V6.61058H152.282C152.992 5.56945 154.114 5.00128 155.381 5.00128C157.222 5.00128 158.445 6.15479 158.445 8.65537Z" fill="#FFD700"/>
<path d="M169 0.636963V13.8236H167.639V12.4422H167.613C166.936 13.3771 165.9 13.9375 164.659 13.9375C162.305 13.9375 160.473 12.1893 160.473 9.52168C160.473 6.85408 162.236 5.00128 164.65 5.00128C165.798 5.00128 166.841 5.4914 167.552 6.39986H167.578V0.636963H169ZM167.631 9.53105C167.631 7.73756 166.415 6.32962 164.815 6.32962C163.215 6.32962 161.921 7.58927 161.921 9.53105C161.921 11.2886 163.06 12.6092 164.797 12.6092C166.294 12.6092 167.631 11.376 167.631 9.53105Z" fill="#FFD700"/>
</svg>
