<svg width="90" height="34" viewBox="0 0 90 34" fill="none" xmlns="http://www.w3.org/2000/svg">
<g clip-path="url(#clip0_3668_3366)">
<path d="M38.5231 15.9578C38.5231 20.3316 35.1848 23.5437 31.1121 23.5437C27.0394 23.5437 23.7012 20.3316 23.7012 15.9578C23.7012 11.5497 27.0394 8.37183 31.1121 8.37183C35.1848 8.37183 38.5231 11.5497 38.5231 15.9578ZM35.285 15.9578C35.285 13.2241 33.3488 11.3789 31.1121 11.3789C28.8755 11.3789 26.9393 13.2583 26.9393 15.9578C26.9393 18.6573 28.8755 20.5366 31.1121 20.5366C33.3488 20.5366 35.285 18.6573 35.285 15.9578Z" fill="white"/>
<path d="M54.5466 15.9578C54.5466 20.3316 51.2083 23.5437 47.1356 23.5437C43.0629 23.5437 39.7246 20.3316 39.7246 15.9578C39.7246 11.5839 43.0629 8.37183 47.1356 8.37183C51.2083 8.37183 54.5466 11.5497 54.5466 15.9578ZM51.2751 15.9578C51.2751 13.2241 49.3389 11.3789 47.1022 11.3789C44.8656 11.3789 42.9294 13.2583 42.9294 15.9578C42.9294 18.6573 44.8656 20.5366 47.1022 20.5366C49.3389 20.5366 51.2751 18.6573 51.2751 15.9578Z" fill="white"/>
<path d="M69.9045 8.85022V22.4502C69.9045 28.0542 66.6664 30.3437 62.8607 30.3437C59.2554 30.3437 57.1189 27.8834 56.2843 25.8673L59.1218 24.6713C59.6226 25.9015 60.8577 27.3708 62.8607 27.3708C65.2977 27.3708 66.7999 25.8331 66.7999 22.9286V21.8351H66.6997C65.9653 22.7578 64.5632 23.5437 62.794 23.5437C59.0885 23.5437 55.7168 20.2291 55.7168 15.9919C55.7168 11.7206 59.1218 8.37183 62.794 8.37183C64.5632 8.37183 65.9653 9.19193 66.6997 10.0804H66.7999V8.85022H69.9045ZM67.0336 15.9919C67.0336 13.3266 65.2977 11.3789 63.0944 11.3789C60.8577 11.3789 58.9549 13.3266 58.9549 15.9919C58.9549 18.6231 60.8244 20.5708 63.0944 20.5708C65.2977 20.5708 67.0336 18.6231 67.0336 15.9919Z" fill="white"/>
<path d="M74.978 0.854248V23.0653H71.8066V0.854248H74.978Z" fill="white"/>
<path d="M87.3618 18.4522L89.8989 20.1608C89.0977 21.3909 87.1282 23.5095 83.7231 23.5095C79.5169 23.5095 76.3789 20.1949 76.3789 15.9236C76.3789 11.413 79.5503 8.33765 83.3559 8.33765C87.1949 8.33765 89.0644 11.4814 89.6986 13.1557L90.0325 14.01L80.1178 18.2472C80.8856 19.7849 82.054 20.5366 83.7231 20.5366C85.3589 20.5366 86.4939 19.7165 87.3618 18.4522ZM79.5837 15.7186L86.1934 12.9165C85.8262 11.9598 84.7246 11.3105 83.4561 11.3105C81.7869 11.3105 79.4835 12.814 79.5837 15.7186Z" fill="white"/>
<path d="M11.6506 13.9759V10.7638H22.2329C22.3331 11.3106 22.3999 11.994 22.3999 12.7116C22.3999 15.1377 21.7656 18.1106 19.6625 20.2291C17.6595 22.3819 15.0556 23.5437 11.6506 23.5437C5.34125 23.5437 0 18.2472 0 11.7548C0 5.26231 5.34125 0 11.6506 0C15.1558 0 17.6595 1.40101 19.5289 3.24623L17.3257 5.50151C15.9904 4.20302 14.1543 3.21206 11.6506 3.21206C7.01039 3.21206 3.40504 7.0392 3.40504 11.7548C3.40504 16.4704 7.01039 20.2975 11.6506 20.2975C14.655 20.2975 16.3576 19.0673 17.4592 17.9397C18.3605 17.0171 18.928 15.7186 19.1617 13.9417L11.6506 13.9759Z" fill="white"/>
</g>
<defs>
<clipPath id="clip0_3668_3366">
<rect width="90" height="34" fill="white"/>
</clipPath>
</defs>
</svg>
