<svg width="677" height="275" viewBox="0 0 677 275" fill="none" xmlns="http://www.w3.org/2000/svg">
<path d="M23.8053 59V49.08H3.19726V43.32C3.41059 42.8933 3.70926 42.3813 4.09326 41.784C4.51992 41.144 4.98926 40.4187 5.50126 39.608L21.2453 16.76H31.8053V42.68H38.6533V49.08H31.8053V59H23.8053ZM10.7493 42.68H23.8693V28.728C23.8693 27.832 23.8906 26.872 23.9333 25.848C23.9759 24.824 24.0186 23.8213 24.0613 22.84H23.9333C23.4639 23.7787 22.8879 24.8027 22.2053 25.912C21.5653 26.9787 20.9679 27.9387 20.4133 28.792L11.5813 41.464C11.4533 41.6773 11.3039 41.8907 11.1333 42.104C11.0053 42.2747 10.8773 42.4667 10.7493 42.68ZM59.6333 59.64C54.2146 59.64 50.0333 57.8053 47.0893 54.136C44.1879 50.4667 42.7373 45.048 42.7373 37.88C42.7373 30.712 44.1879 25.2933 47.0893 21.624C50.0333 17.9547 54.2146 16.12 59.6333 16.12C65.0519 16.12 69.2119 17.9547 72.1133 21.624C75.0573 25.2933 76.5293 30.712 76.5293 37.88C76.5293 45.048 75.0573 50.4667 72.1133 54.136C69.2119 57.8053 65.0519 59.64 59.6333 59.64ZM59.6333 52.536C61.4679 52.536 62.9613 52.024 64.1133 51C65.3079 49.9333 66.2039 48.3333 66.8013 46.2C67.3986 44.024 67.6973 41.2507 67.6973 37.88C67.6973 34.5093 67.3986 31.7573 66.8013 29.624C66.2039 27.448 65.3079 25.848 64.1133 24.824C62.9613 23.7573 61.4679 23.224 59.6333 23.224C57.7986 23.224 56.2839 23.7573 55.0893 24.824C53.8946 25.848 52.9986 27.448 52.4013 29.624C51.8466 31.7573 51.5693 34.5093 51.5693 37.88C51.5693 41.2507 51.8466 44.024 52.4013 46.2C52.9986 48.3333 53.8946 49.9333 55.0893 51C56.2839 52.024 57.7986 52.536 59.6333 52.536ZM101.793 59V49.08H81.1848V43.32C81.3981 42.8933 81.6968 42.3813 82.0808 41.784C82.5074 41.144 82.9768 40.4187 83.4888 39.608L99.2328 16.76H109.793V42.68H116.641V49.08H109.793V59H101.793ZM88.7368 42.68H101.857V28.728C101.857 27.832 101.878 26.872 101.921 25.848C101.963 24.824 102.006 23.8213 102.049 22.84H101.921C101.451 23.7787 100.875 24.8027 100.193 25.912C99.5528 26.9787 98.9554 27.9387 98.4008 28.792L89.5688 41.464C89.4408 41.6773 89.2914 41.8907 89.1208 42.104C88.9928 42.2747 88.8648 42.4667 88.7368 42.68Z" fill="#282828"/>
<path d="M158.463 16.76C161.706 16.76 164.479 17.3147 166.783 18.424C169.087 19.4907 170.858 21.048 172.095 23.096C173.375 25.1013 174.015 27.5333 174.015 30.392C174.015 33.2507 173.375 35.704 172.095 37.752C170.858 39.7573 169.087 41.3147 166.783 42.424C164.479 43.4907 161.706 44.024 158.463 44.024H149.567V59H140.735V16.76H158.463ZM157.119 37.048C159.765 37.048 161.749 36.4933 163.071 35.384C164.394 34.232 165.055 32.568 165.055 30.392C165.055 28.1733 164.394 26.5093 163.071 25.4C161.749 24.2907 159.765 23.736 157.119 23.736H149.567V37.048H157.119ZM213.37 59H204.218L200.698 48.696H184.506L180.986 59H171.962L187.386 16.76H197.946L213.37 59ZM186.49 42.168H198.714L192.57 23.736L186.49 42.168ZM233.817 59.64C229.934 59.64 226.521 58.7867 223.577 57.08C220.675 55.3733 218.414 52.8987 216.793 49.656C215.171 46.4133 214.361 42.5093 214.361 37.944C214.361 33.4213 215.214 29.5387 216.921 26.296C218.627 23.0107 221.038 20.4933 224.153 18.744C227.31 16.9947 230.958 16.12 235.097 16.12C239.662 16.12 243.353 16.9733 246.169 18.68C248.985 20.344 251.225 22.9467 252.889 26.488L244.697 30.008C244.014 27.7467 242.841 26.0827 241.177 25.016C239.555 23.9067 237.55 23.352 235.161 23.352C232.771 23.352 230.702 23.928 228.953 25.08C227.203 26.1893 225.859 27.832 224.921 30.008C223.982 32.1413 223.513 34.7653 223.513 37.88C223.513 41.08 223.961 43.7893 224.857 46.008C225.753 48.184 227.075 49.8267 228.825 50.936C230.617 52.0027 232.814 52.536 235.417 52.536C236.825 52.536 238.126 52.3653 239.321 52.024C240.558 51.6827 241.625 51.1707 242.521 50.488C243.417 49.8053 244.121 48.9307 244.633 47.864C245.145 46.7973 245.401 45.56 245.401 44.152V43.192H234.329V36.728H253.017V59H246.809L246.169 49.784L247.705 50.872C246.766 53.688 245.102 55.864 242.713 57.4C240.366 58.8933 237.401 59.64 233.817 59.64ZM261.123 59V16.76H292.803V23.864H269.955V34.36H287.939V41.144H269.955V51.896H293.699V59H261.123ZM354.273 16.76V59H344.161L329.377 34.168L325.729 27.256H325.665L325.921 34.552V59H317.985V16.76H328.033L342.817 41.528L346.465 48.504H346.593L346.337 41.208V16.76H354.273ZM381.938 16.12C386.119 16.12 389.724 16.9947 392.754 18.744C395.783 20.4933 398.108 22.9893 399.73 26.232C401.394 29.4747 402.226 33.3573 402.226 37.88C402.226 42.4027 401.394 46.2853 399.73 49.528C398.108 52.7707 395.783 55.2667 392.754 57.016C389.724 58.7653 386.119 59.64 381.938 59.64C377.756 59.64 374.13 58.7653 371.058 57.016C368.028 55.2667 365.682 52.7707 364.018 49.528C362.396 46.2853 361.586 42.4027 361.586 37.88C361.586 33.3573 362.396 29.4747 364.018 26.232C365.682 22.9893 368.028 20.4933 371.058 18.744C374.13 16.9947 377.756 16.12 381.938 16.12ZM381.938 23.352C379.548 23.352 377.522 23.9067 375.858 25.016C374.194 26.1253 372.914 27.768 372.018 29.944C371.164 32.0773 370.738 34.7227 370.738 37.88C370.738 40.9947 371.164 43.64 372.018 45.816C372.914 47.992 374.194 49.6347 375.858 50.744C377.522 51.8533 379.548 52.408 381.938 52.408C384.284 52.408 386.29 51.8533 387.954 50.744C389.618 49.6347 390.876 47.992 391.73 45.816C392.626 43.64 393.074 40.9947 393.074 37.88C393.074 34.7227 392.626 32.0773 391.73 29.944C390.876 27.768 389.618 26.1253 387.954 25.016C386.29 23.9067 384.284 23.352 381.938 23.352ZM441.318 16.76V23.864H427.174V59H418.342V23.864H404.134V16.76H441.318ZM495.201 23.864H472.417V34.616H490.401V41.72H472.417V59H463.585V16.76H495.201V23.864ZM518.975 16.12C523.157 16.12 526.762 16.9947 529.791 18.744C532.821 20.4933 535.146 22.9893 536.767 26.232C538.431 29.4747 539.263 33.3573 539.263 37.88C539.263 42.4027 538.431 46.2853 536.767 49.528C535.146 52.7707 532.821 55.2667 529.791 57.016C526.762 58.7653 523.157 59.64 518.975 59.64C514.794 59.64 511.167 58.7653 508.095 57.016C505.066 55.2667 502.719 52.7707 501.055 49.528C499.434 46.2853 498.623 42.4027 498.623 37.88C498.623 33.3573 499.434 29.4747 501.055 26.232C502.719 22.9893 505.066 20.4933 508.095 18.744C511.167 16.9947 514.794 16.12 518.975 16.12ZM518.975 23.352C516.586 23.352 514.559 23.9067 512.895 25.016C511.231 26.1253 509.951 27.768 509.055 29.944C508.202 32.0773 507.775 34.7227 507.775 37.88C507.775 40.9947 508.202 43.64 509.055 45.816C509.951 47.992 511.231 49.6347 512.895 50.744C514.559 51.8533 516.586 52.408 518.975 52.408C521.322 52.408 523.327 51.8533 524.991 50.744C526.655 49.6347 527.914 47.992 528.767 45.816C529.663 43.64 530.111 40.9947 530.111 37.88C530.111 34.7227 529.663 32.0773 528.767 29.944C527.914 27.768 526.655 26.1253 524.991 25.016C523.327 23.9067 521.322 23.352 518.975 23.352ZM581.837 16.76V42.36C581.837 48.12 580.301 52.4507 577.229 55.352C574.157 58.2107 569.677 59.64 563.789 59.64C557.901 59.64 553.421 58.2107 550.349 55.352C547.277 52.4507 545.741 48.12 545.741 42.36V16.76H554.573V41.976C554.573 45.5173 555.319 48.1413 556.813 49.848C558.349 51.5547 560.674 52.408 563.789 52.408C566.903 52.408 569.207 51.5547 570.701 49.848C572.194 48.1413 572.941 45.5173 572.941 41.976V16.76H581.837ZM626.698 16.76V59H616.586L601.802 34.168L598.154 27.256H598.09L598.346 34.552V59H590.41V16.76H600.458L615.242 41.528L618.89 48.504H619.018L618.762 41.208V16.76H626.698ZM652.443 16.76C659.056 16.76 664.176 18.5947 667.803 22.264C671.429 25.8907 673.243 31.096 673.243 37.88C673.243 44.6213 671.429 49.8267 667.803 53.496C664.176 57.1653 659.056 59 652.443 59H636.123V16.76H652.443ZM651.995 51.96C656.005 51.96 659.013 50.7653 661.019 48.376C663.067 45.944 664.091 42.4453 664.091 37.88C664.091 33.3147 663.067 29.8373 661.019 27.448C659.013 25.016 656.005 23.8 651.995 23.8H644.955V51.96H651.995Z" fill="#171717"/>
<g clip-path="url(#clip0_366_3496)">
<path d="M440.145 243.451L439.78 237.841C446.492 237.476 453.059 236.529 459.479 234.853C465.899 233.25 472.028 230.773 477.791 227.567C480.71 225.964 483.482 224.143 486.254 222.248C489.027 220.354 491.872 218.314 495.082 216.565C496.687 215.691 498.365 214.889 500.189 214.233C502.013 213.65 503.91 213.213 505.88 213.068C507.85 212.922 509.82 213.068 511.717 213.432C512.227 213.505 512.665 213.65 513.103 213.723C513.54 213.869 514.051 213.942 514.489 214.088L515.802 214.525L516.532 214.743L517.626 215.108L518.137 215.545C518.283 215.691 518.502 215.836 518.575 215.909L519.158 216.492C519.523 216.856 519.961 217.221 520.253 217.658C520.617 218.095 520.982 218.459 521.274 218.896L522.149 220.208C523.244 222.03 524.046 224.07 524.557 226.11C525.505 230.19 525.36 234.197 524.995 237.986C524.63 241.775 524.119 245.345 523.973 248.77C523.9 250.446 523.973 252.121 524.265 253.652C524.557 255.182 525.068 256.566 525.797 257.805C525.797 257.732 525.943 258.023 526.381 258.242C526.746 258.46 527.256 258.679 527.84 258.825C528.934 259.189 530.175 259.408 531.415 259.553C533.969 259.845 536.668 259.99 539.367 259.918C544.766 259.845 550.311 259.262 555.783 258.46C561.255 257.732 566.727 256.712 572.198 255.619C577.67 254.526 583.142 253.287 588.468 251.976L589.854 257.367C584.309 258.752 578.838 259.99 573.293 261.083C567.748 262.176 562.203 263.196 556.512 263.925C550.895 264.726 545.204 265.309 539.44 265.455C536.522 265.528 533.604 265.455 530.613 265.018C529.08 264.799 527.548 264.508 526.016 263.998C525.214 263.706 524.411 263.415 523.609 262.978L522.952 262.613C522.733 262.468 522.514 262.322 522.295 262.103C521.858 261.739 521.42 261.302 520.982 260.646C519.815 258.752 519.012 256.639 518.647 254.526C518.283 252.413 518.21 250.373 518.283 248.405C518.429 244.471 519.012 240.828 519.304 237.258C519.669 233.687 519.742 230.263 519.012 227.203C518.647 225.673 518.064 224.215 517.334 222.904L516.678 221.957C516.459 221.665 516.167 221.374 515.948 221.082C515.729 220.791 515.437 220.499 515.145 220.281L514.708 219.844L514.635 219.771L512.884 219.188C512.519 219.042 512.154 219.042 511.789 218.896C511.425 218.824 511.06 218.678 510.695 218.678C509.236 218.386 507.777 218.314 506.318 218.386C504.858 218.532 503.399 218.824 502.013 219.261C500.627 219.771 499.168 220.427 497.782 221.155C495.009 222.685 492.237 224.653 489.391 226.547C486.546 228.514 483.628 230.409 480.491 232.084C474.362 235.509 467.65 238.205 460.865 239.954C454.08 242.067 447.149 243.087 440.145 243.451Z" fill="#0F0B26"/>
<path d="M440.145 242.941L439.853 238.351C446.565 237.913 453.205 237.039 459.625 235.363C466.045 233.687 472.246 231.21 478.083 228.004C481.001 226.401 483.774 224.58 486.619 222.685C489.464 220.791 492.237 218.751 495.447 217.002C497.052 216.128 498.657 215.326 500.481 214.743C502.232 214.161 504.129 213.723 506.026 213.578C507.923 213.505 509.82 213.578 511.717 213.869C512.154 213.942 512.665 214.088 513.103 214.161C513.54 214.306 514.051 214.379 514.489 214.525L515.802 214.962L516.459 215.181L517.48 215.545L517.918 215.909C518.064 216.055 518.283 216.201 518.283 216.273L518.866 216.784C519.231 217.148 519.596 217.512 519.961 217.876C520.326 218.314 520.617 218.678 520.982 219.115L521.858 220.427C522.952 222.248 523.682 224.215 524.192 226.183C525.141 230.19 524.995 234.125 524.63 237.913C524.265 241.629 523.755 245.272 523.609 248.77C523.536 250.518 523.609 252.194 523.9 253.797C524.192 255.4 524.776 256.857 525.506 258.096C525.578 258.169 525.797 258.46 526.308 258.679C526.746 258.898 527.257 259.116 527.84 259.335C529.007 259.699 530.248 259.99 531.561 260.136C534.187 260.501 536.887 260.573 539.586 260.501C545.058 260.428 550.603 259.772 556.075 259.043C561.547 258.315 567.091 257.295 572.49 256.202C577.962 255.109 583.434 253.87 588.76 252.559L589.927 257.003C584.382 258.388 578.911 259.626 573.366 260.719C567.821 261.812 562.276 262.832 556.658 263.561C551.041 264.362 545.423 264.945 539.659 265.091C536.814 265.164 533.896 265.091 530.904 264.727C529.445 264.508 527.913 264.216 526.381 263.779C525.578 263.561 524.849 263.196 524.046 262.759L523.463 262.395C523.244 262.249 523.025 262.103 522.879 261.958C522.514 261.666 522.076 261.229 521.712 260.646C520.544 258.752 519.815 256.712 519.45 254.744C519.085 252.704 519.012 250.737 519.085 248.77C519.231 244.908 519.815 241.192 520.107 237.622C520.471 234.052 520.544 230.554 519.742 227.348C519.377 225.746 518.793 224.288 517.991 222.904L517.334 221.957C517.115 221.665 516.824 221.374 516.605 221.01C516.386 220.718 516.021 220.427 515.802 220.135L515.364 219.698C515.291 219.625 515.291 219.625 515.219 219.625L515.146 219.552L514.927 219.479L514.343 219.334L513.249 218.969C512.884 218.824 512.519 218.751 512.081 218.678C511.717 218.605 511.352 218.459 510.914 218.459C509.382 218.168 507.85 218.095 506.391 218.168C504.858 218.314 503.399 218.605 501.94 219.115C500.481 219.625 499.022 220.281 497.636 221.082C494.79 222.612 492.018 224.58 489.173 226.474C486.327 228.369 483.409 230.336 480.345 232.012C474.216 235.436 467.577 238.059 460.792 239.808C454.007 241.556 447.076 242.577 440.145 242.941Z" fill="#0A0913"/>
<path d="M440.072 242.431L439.853 238.933C446.565 238.496 453.277 237.549 459.771 235.946C466.264 234.27 472.465 231.793 478.302 228.514C481.22 226.911 484.066 225.09 486.838 223.122C489.683 221.228 492.456 219.188 495.593 217.512C497.198 216.638 498.803 215.909 500.554 215.253C502.305 214.671 504.129 214.306 506.026 214.088C507.923 214.015 509.747 214.088 511.571 214.379C512.008 214.452 512.446 214.598 512.884 214.671C513.322 214.816 513.759 214.889 514.197 215.035L515.51 215.472L516.167 215.691L517.115 216.055L517.553 216.419C517.699 216.565 517.845 216.711 517.918 216.784L518.429 217.294C518.793 217.658 519.158 217.949 519.45 218.386C519.742 218.751 520.107 219.188 520.398 219.552L521.274 220.791C522.368 222.54 523.098 224.434 523.536 226.401C524.484 230.336 524.265 234.197 523.973 237.913C523.609 241.629 523.098 245.272 522.952 248.77C522.879 250.518 522.952 252.267 523.244 253.87C523.536 255.473 524.119 257.003 524.922 258.388C525.068 258.533 525.36 258.898 525.87 259.116C526.308 259.408 526.892 259.626 527.475 259.772C528.643 260.136 529.956 260.428 531.269 260.573C533.896 260.938 536.668 261.011 539.367 260.938C544.839 260.865 550.384 260.209 555.929 259.48C561.474 258.752 566.945 257.732 572.417 256.639C577.889 255.546 583.361 254.307 588.76 252.996L589.635 256.42C584.163 257.805 578.692 259.043 573.147 260.136C567.602 261.229 562.057 262.249 556.44 262.978C550.822 263.779 545.204 264.362 539.513 264.508C536.668 264.581 533.75 264.508 530.831 264.144C529.372 263.925 527.913 263.634 526.381 263.196C525.651 262.978 524.922 262.686 524.119 262.249L523.536 261.885C523.317 261.739 523.171 261.593 522.952 261.448C522.587 261.156 522.222 260.719 521.858 260.282C520.763 258.46 520.034 256.493 519.669 254.526C519.304 252.559 519.231 250.591 519.304 248.624C519.45 244.762 520.034 241.119 520.326 237.549C520.69 233.979 520.763 230.409 519.961 227.13C519.596 225.527 518.939 223.924 518.137 222.54L517.48 221.52C517.261 221.155 516.969 220.864 516.678 220.572C516.459 220.208 516.094 219.989 515.802 219.698L515.364 219.261C515.291 219.188 515.291 219.188 515.219 219.115L515.146 219.042L514.854 218.969L514.27 218.751L513.103 218.386C512.738 218.241 512.3 218.168 511.935 218.095C511.571 218.022 511.133 217.876 510.768 217.876C509.236 217.585 507.631 217.512 506.099 217.585C504.567 217.731 503.035 218.022 501.502 218.532C500.043 219.042 498.584 219.771 497.125 220.499C494.28 222.102 491.507 223.997 488.662 225.964C485.817 227.858 482.898 229.826 479.834 231.502C473.779 234.926 467.212 237.549 460.427 239.225C453.934 241.046 447.003 241.994 440.072 242.431Z" fill="#11101D"/>
<path d="M440.072 241.921L439.926 239.443C446.711 239.006 453.423 238.059 459.917 236.383C466.483 234.707 472.757 232.23 478.594 228.951C481.512 227.276 484.357 225.454 487.203 223.56C490.048 221.665 492.821 219.698 495.885 217.949C497.417 217.148 499.022 216.346 500.773 215.763C502.451 215.181 504.275 214.816 506.099 214.671C507.923 214.598 509.747 214.671 511.498 214.962C511.935 215.035 512.373 215.181 512.811 215.253C513.249 215.399 513.686 215.472 514.124 215.618L515.364 216.055L516.021 216.273L516.824 216.565L517.188 216.856C517.334 216.929 517.48 217.075 517.553 217.148L518.064 217.658C518.429 218.022 518.793 218.314 519.085 218.751C519.377 219.115 519.742 219.479 520.034 219.917L520.836 221.155C521.858 222.831 522.587 224.725 523.025 226.62C523.901 230.409 523.755 234.27 523.463 237.986C523.098 241.702 522.587 245.345 522.441 248.915C522.368 250.664 522.441 252.486 522.806 254.162C523.098 255.837 523.682 257.44 524.557 258.825C524.776 259.116 525.141 259.48 525.724 259.772C526.235 260.063 526.819 260.282 527.402 260.5C528.643 260.865 529.956 261.156 531.269 261.302C533.969 261.666 536.741 261.739 539.44 261.666C544.985 261.593 550.53 260.938 556.075 260.209C561.62 259.48 567.091 258.46 572.563 257.367C578.035 256.275 583.507 255.036 588.906 253.724L589.562 256.129C584.091 257.513 578.619 258.752 573.074 259.845C567.529 260.938 561.984 261.958 556.44 262.686C550.822 263.488 545.204 264.071 539.513 264.144C536.668 264.216 533.823 264.144 530.904 263.779C529.445 263.634 527.986 263.342 526.6 262.832C525.87 262.613 525.141 262.322 524.411 261.885L523.9 261.593C523.755 261.448 523.536 261.302 523.39 261.229C523.025 260.938 522.733 260.573 522.441 260.136C521.347 258.388 520.69 256.493 520.326 254.599C519.961 252.631 519.888 250.737 519.961 248.843C520.107 245.054 520.69 241.411 520.982 237.768C521.347 234.197 521.42 230.554 520.617 227.203C520.253 225.527 519.596 223.924 518.721 222.467L517.991 221.447C517.772 221.082 517.48 220.791 517.188 220.427C516.897 220.062 516.605 219.844 516.313 219.479L515.875 219.042C515.802 218.969 515.729 218.896 515.729 218.896L515.583 218.751L515.219 218.605L514.635 218.386L513.468 218.022C513.103 217.876 512.665 217.804 512.3 217.731C511.935 217.658 511.498 217.512 511.133 217.439C509.528 217.148 507.923 217.075 506.318 217.148C504.713 217.294 503.181 217.658 501.648 218.095C500.116 218.605 498.657 219.334 497.198 220.135C494.28 221.738 491.507 223.705 488.662 225.6C485.817 227.494 482.898 229.389 479.907 231.137C473.852 234.562 467.358 237.112 460.646 238.861C453.861 240.536 446.93 241.484 440.072 241.921Z" fill="#1C1A31"/>
<path d="M440.072 241.411L439.999 239.954C446.784 239.516 453.496 238.569 460.063 236.893C466.629 235.218 472.976 232.667 478.886 229.389C481.877 227.713 484.722 225.891 487.495 223.997C490.34 222.102 493.112 220.135 496.177 218.459C497.709 217.658 499.314 216.856 500.992 216.274C502.67 215.691 504.421 215.326 506.172 215.181C507.923 215.108 509.747 215.181 511.425 215.472C511.863 215.545 512.3 215.618 512.738 215.763C513.176 215.836 513.613 215.982 514.051 216.055L515.292 216.492L515.948 216.711L516.678 217.002C516.897 217.221 517.115 217.366 517.334 217.585L517.845 218.095C518.21 218.459 518.575 218.751 518.866 219.115C519.158 219.479 519.523 219.844 519.742 220.208L520.544 221.374C521.566 223.05 522.223 224.798 522.66 226.693C523.536 230.409 523.39 234.197 523.098 237.913C522.733 241.629 522.222 245.2 522.077 248.843C522.004 250.664 522.077 252.413 522.441 254.162C522.733 255.91 523.39 257.586 524.265 259.043C524.557 259.48 524.995 259.845 525.579 260.136C526.162 260.428 526.746 260.719 527.403 260.865C528.643 261.302 530.029 261.521 531.342 261.739C534.042 262.103 536.814 262.176 539.659 262.103C545.204 262.031 550.822 261.375 556.294 260.646C561.838 259.918 567.31 258.898 572.855 257.805C578.327 256.712 583.799 255.473 589.198 254.089L589.489 255.546C584.018 256.93 578.546 258.169 573.001 259.262C567.456 260.355 561.984 261.375 556.367 262.103C550.822 262.905 545.204 263.488 539.513 263.561C536.668 263.634 533.823 263.561 530.977 263.196C529.591 263.051 528.132 262.759 526.746 262.322C526.016 262.103 525.36 261.812 524.703 261.448L524.192 261.156C524.046 261.011 523.901 260.938 523.682 260.792C523.39 260.573 523.098 260.209 522.806 259.845C521.785 258.169 521.128 256.347 520.763 254.453C520.399 252.559 520.326 250.664 520.399 248.843C520.544 245.127 521.055 241.484 521.42 237.841C521.785 234.197 521.858 230.554 521.055 227.13C520.617 225.381 520.034 223.778 519.085 222.248L518.356 221.155C518.064 220.791 517.772 220.499 517.553 220.135C517.261 219.771 516.97 219.479 516.605 219.188L516.167 218.751C516.021 218.605 515.875 218.532 515.729 218.386L515.292 218.241L514.708 218.022L513.541 217.658C513.176 217.512 512.738 217.439 512.3 217.366C511.863 217.294 511.498 217.148 511.06 217.075C509.455 216.784 507.777 216.711 506.172 216.784C504.567 216.929 502.889 217.294 501.357 217.804C499.825 218.314 498.292 219.042 496.833 219.844C493.915 221.447 491.143 223.414 488.297 225.381C485.452 227.276 482.607 229.17 479.542 230.846C473.56 234.197 467.067 236.82 460.354 238.496C453.715 240.026 446.93 240.974 440.072 241.411Z" fill="#25213B"/>
<path d="M445.252 240.682C445.252 241.775 444.887 242.795 444.304 243.597C444.158 243.815 444.012 244.034 443.793 244.179C442.917 245.054 441.677 245.637 440.291 245.637H431.39V235.728H440.291C441.896 235.728 443.355 236.529 444.304 237.768C444.887 238.569 445.252 239.589 445.252 240.682Z" fill="#25213B"/>
<path d="M436.716 235.728H433.652V245.637H436.716V235.728Z" fill="#0F0B26"/>
<path d="M418.112 209.424V271.867H361.059C360.475 271.867 360.038 271.43 360.038 270.847V210.372C360.038 209.789 360.475 209.352 361.059 209.352H418.112V209.424Z" fill="#25213B"/>
<path d="M435.695 217.294V263.998C435.695 266.767 433.433 269.025 430.661 269.025H418.112V212.193H430.661C433.433 212.266 435.695 214.525 435.695 217.294Z" fill="#25213B"/>
<path d="M388.778 243.576L360.033 243.617L360.043 250.831L388.788 250.79L388.778 243.576Z" fill="#848492"/>
<path d="M388.779 244.232L360.034 244.273L360.042 250.102L388.787 250.061L388.779 244.232Z" fill="#8B8A9C"/>
<path d="M388.78 244.888L360.035 244.929L360.041 249.446L388.786 249.405L388.78 244.888Z" fill="#8E8C9E"/>
<path d="M388.781 245.543L360.036 245.585L360.04 248.79L388.786 248.749L388.781 245.543Z" fill="#9191A1"/>
<path d="M388.782 246.199L360.036 246.24L360.039 248.135L388.784 248.093L388.782 246.199Z" fill="#9695A7"/>
<path d="M360.038 262.832V263.488H331.292V262.176V259.918V258.315V256.347L360.038 256.275V257.659V259.918V261.521V262.832Z" fill="#848492"/>
<path d="M360.038 262.832H331.292V260.865V259.918V257.003L360.038 256.93V258.315V259.918V260.865V262.832Z" fill="#8B8A9C"/>
<path d="M360.038 259.918V262.176H331.292V260.865V259.918V257.659H360.038V258.97V259.918Z" fill="#8E8C9E"/>
<path d="M360.038 259.918V261.521H331.292V260.865V259.918V258.315H360.038V258.97V259.918Z" fill="#9191A1"/>
<path d="M360.038 259.918V260.865H331.292V259.918V258.97H360.038V259.918Z" fill="#9695A7"/>
<path d="M360.038 225.381V226.037L331.292 226.11V224.725V222.467V220.864V218.897H360.038V220.208V222.467V224.07V225.381Z" fill="#848492"/>
<path d="M360.038 225.381L331.292 225.454V223.414V222.467V219.552H360.038V220.864V222.467V223.414V225.381Z" fill="#8B8A9C"/>
<path d="M360.038 222.467V224.725H331.292V223.414V222.467V220.208H360.038V221.52V222.467Z" fill="#8E8C9E"/>
<path d="M360.038 222.467V224.07H331.292V223.414V222.467V220.864H360.038V221.52V222.467Z" fill="#9191A1"/>
<path d="M360.038 222.467V223.414H331.292V222.467V221.52H360.038V222.467Z" fill="#9695A7"/>
<path d="M421.468 209.424H418.112V271.284H421.468V209.424Z" fill="#25213B"/>
<path d="M422.854 212.266H419.79V269.098H422.854V212.266Z" fill="#0F0B26"/>
<path d="M415.485 208.332V273.251H414.537C414.245 272.814 414.099 272.377 414.026 271.867H412.421V209.424H414.026C414.099 209.06 414.172 208.696 414.391 208.404H415.485V208.332Z" fill="#0F0B26"/>
<path d="M421.395 210.007V271.284C421.395 273.324 419.717 275 417.674 275C416.361 275 415.193 274.344 414.537 273.251C414.245 272.814 414.099 272.377 414.026 271.867C414.026 271.648 413.953 271.503 413.953 271.284V210.007C413.953 209.789 413.953 209.643 414.026 209.425C414.099 209.06 414.172 208.696 414.391 208.404C414.975 207.166 416.288 206.364 417.747 206.364C418.768 206.364 419.717 206.801 420.373 207.457C420.884 207.967 421.322 208.696 421.395 209.497C421.395 209.57 421.395 209.789 421.395 210.007Z" fill="#25213B"/>
<path opacity="0.14" d="M435.695 259.918V263.998C435.695 266.767 433.433 269.025 430.661 269.025H421.468V271.284C421.468 273.324 419.79 275 417.747 275C416.434 275 415.266 274.344 414.61 273.251C414.318 272.814 414.172 272.377 414.099 271.867H361.132C360.548 271.867 360.111 271.43 360.111 270.847V263.488H331.365V262.176V259.918H435.695Z" fill="#25213B"/>
<path opacity="0.05" d="M435.695 217.294V222.467H331.292V220.864V218.897H360.038V220.208V222.467V210.445C360.038 209.862 360.475 209.425 361.059 209.425H414.026C414.099 209.06 414.172 208.696 414.391 208.404C414.975 207.166 416.288 206.364 417.747 206.364C418.768 206.364 419.717 206.801 420.373 207.457C420.884 207.967 421.322 208.696 421.395 209.497H421.468V212.339H430.661C433.433 212.266 435.695 214.525 435.695 217.294Z" fill="#FFD700"/>
<path opacity="0.14" d="M444.304 243.524C444.158 243.742 444.012 243.961 443.793 244.107C442.917 244.981 441.677 245.564 440.291 245.564H435.695V243.524H444.304Z" fill="#25213B"/>
<path opacity="0.05" d="M444.304 237.768V237.913H435.695V235.728H440.291C441.969 235.728 443.428 236.529 444.304 237.768Z" fill="#FFD700"/>
<path d="M89 258.533L90.2403 253.797C90.6051 252.413 90.3862 253.433 90.4592 253.069H90.5321H90.678L90.8969 253.141L91.4076 253.36L92.429 253.579L94.3989 254.089L98.4845 255.036C101.184 255.619 103.956 256.202 106.656 256.712C112.128 257.805 117.599 258.752 123.071 259.48C128.543 260.209 134.088 260.792 139.487 260.865C142.186 260.938 144.886 260.792 147.439 260.501C148.752 260.355 149.92 260.063 151.014 259.699C151.525 259.553 152.035 259.335 152.473 259.116C152.911 258.898 153.13 258.679 153.057 258.679C153.786 257.44 154.297 256.056 154.589 254.526C154.881 252.996 154.954 251.32 154.881 249.644C154.735 246.22 154.224 242.577 153.859 238.861C153.495 235.072 153.349 231.064 154.297 226.984C154.735 224.944 155.537 222.904 156.632 221.082L157.507 219.771C157.799 219.334 158.164 218.969 158.529 218.532C158.893 218.095 159.258 217.731 159.623 217.366L160.207 216.784C160.28 216.711 160.498 216.565 160.644 216.419L161.155 215.982L162.249 215.545L162.906 215.326L164.292 214.889C164.73 214.743 165.241 214.671 165.678 214.525C166.116 214.379 166.627 214.306 167.138 214.233L168.597 214.015L170.056 213.942C170.567 213.942 171.077 213.942 171.515 213.942C172.026 214.015 172.536 214.015 172.974 214.088C174.944 214.306 176.841 214.962 178.592 215.618C180.343 216.346 182.021 217.294 183.553 218.241C186.617 220.208 189.39 222.394 192.089 224.434C194.789 226.474 197.488 228.441 200.333 230.117C205.951 233.542 212.08 235.873 218.5 237.112C224.92 238.351 231.632 238.642 238.271 238.278L238.563 243.888C231.559 244.252 224.409 243.961 217.405 242.577C210.401 241.265 203.543 238.569 197.415 234.853C194.351 233.032 191.433 230.919 188.733 228.879C185.961 226.766 183.334 224.653 180.562 222.977C177.862 221.228 175.09 219.989 172.172 219.625C171.807 219.552 171.442 219.552 171.077 219.552C170.713 219.552 170.348 219.479 169.983 219.552L168.889 219.625L167.794 219.771C167.429 219.771 167.065 219.917 166.7 219.989C166.335 220.062 165.97 220.135 165.606 220.208L163.855 220.791L163.782 220.864L163.344 221.301C163.052 221.592 162.76 221.811 162.541 222.102C162.322 222.394 162.031 222.685 161.812 222.977L161.155 223.924C160.353 225.235 159.842 226.693 159.477 228.223C158.747 231.283 158.82 234.78 159.185 238.278C159.55 241.848 160.134 245.491 160.28 249.426C160.353 251.393 160.28 253.433 159.915 255.546C159.55 257.659 158.82 259.772 157.58 261.666C157.215 262.249 156.705 262.759 156.267 263.124C156.048 263.269 155.829 263.488 155.61 263.634L154.954 263.998C154.151 264.435 153.276 264.799 152.546 265.018C150.941 265.528 149.409 265.819 147.95 266.038C144.958 266.402 142.04 266.548 139.122 266.475C133.358 266.402 127.668 265.819 122.05 265.018C116.432 264.289 110.814 263.269 105.27 262.176C100.017 261.156 94.5448 259.918 89 258.533Z" fill="#0F0B26"/>
<path d="M89.146 258.096L90.2404 253.87C90.3133 253.433 90.3133 253.724 90.3133 253.651H90.3863H90.5322L90.7511 253.724L91.2618 253.87L92.2832 254.089L94.326 254.599L98.4116 255.546C101.111 256.129 103.883 256.712 106.583 257.222C112.055 258.315 117.527 259.262 123.071 259.99C128.543 260.719 134.088 261.302 139.56 261.375C142.259 261.448 145.032 261.302 147.585 261.011C148.898 260.865 150.139 260.573 151.306 260.209C151.89 259.99 152.4 259.772 152.838 259.553C153.276 259.335 153.568 259.043 153.641 258.97C154.443 257.659 154.954 256.202 155.246 254.672C155.537 253.069 155.61 251.393 155.537 249.644C155.392 246.147 154.881 242.577 154.516 238.788C154.151 235.072 154.005 231.064 154.881 227.057C155.319 225.09 156.121 223.122 157.215 221.301L158.091 219.989C158.383 219.552 158.748 219.188 159.112 218.751C159.404 218.314 159.842 218.022 160.207 217.585L160.79 217.075C160.863 217.002 161.082 216.856 161.155 216.711L161.593 216.346L162.614 215.982L163.271 215.763L164.584 215.326C165.022 215.181 165.533 215.108 165.97 215.035C166.408 214.962 166.919 214.816 167.357 214.743L168.816 214.525L170.275 214.452C170.786 214.452 171.223 214.452 171.734 214.452C172.245 214.525 172.682 214.525 173.193 214.598C175.163 214.816 176.987 215.399 178.738 216.128C180.489 216.856 182.094 217.731 183.626 218.678C186.69 220.572 189.39 222.758 192.089 224.798C194.789 226.838 197.488 228.806 200.333 230.481C206.024 233.906 212.226 236.31 218.719 237.549C225.212 238.788 231.924 239.152 238.636 238.788L238.855 243.378C231.851 243.742 224.774 243.451 217.77 242.066C210.766 240.755 203.981 238.059 197.926 234.416C194.862 232.594 192.016 230.554 189.244 228.441C186.471 226.401 183.845 224.215 181.073 222.54C178.3 220.791 175.455 219.479 172.537 219.115C172.172 219.042 171.807 219.042 171.442 219.042C171.077 219.042 170.713 218.969 170.348 219.042L169.253 219.115L168.159 219.261C167.794 219.261 167.43 219.406 167.065 219.479C166.7 219.552 166.335 219.625 165.97 219.771L164.876 220.135L164.292 220.281L164.073 220.354L164.001 220.427C164.001 220.427 164.001 220.427 163.855 220.499L163.417 220.937C163.125 221.228 162.833 221.447 162.614 221.811C162.395 222.102 162.104 222.394 161.885 222.758L161.228 223.705C160.426 225.09 159.842 226.547 159.477 228.15C158.748 231.356 158.821 234.853 159.185 238.423C159.55 241.994 160.134 245.637 160.28 249.498C160.353 251.466 160.28 253.433 159.915 255.473C159.55 257.513 158.821 259.553 157.653 261.448C157.288 261.958 156.851 262.395 156.486 262.759C156.267 262.905 156.048 263.051 155.902 263.196L155.027 263.561C154.224 263.998 153.422 264.289 152.692 264.581C151.16 265.091 149.628 265.382 148.169 265.601C145.177 265.965 142.332 266.111 139.414 266.038C133.65 265.965 128.032 265.382 122.415 264.581C116.797 263.852 111.252 262.832 105.707 261.739C100.163 260.646 94.6178 259.408 89.146 258.096Z" fill="#0A0913"/>
<path d="M89.2917 257.586L90.1672 254.162C95.5661 255.473 101.038 256.712 106.51 257.805C111.982 258.898 117.453 259.845 122.998 260.573C128.543 261.302 134.015 261.885 139.56 261.958C142.332 262.031 145.031 261.885 147.658 261.593C148.971 261.448 150.284 261.156 151.452 260.792C152.035 260.573 152.619 260.355 153.057 260.136C153.567 259.918 153.859 259.553 154.005 259.335C154.808 258.023 155.391 256.42 155.683 254.817C155.975 253.214 156.048 251.466 155.975 249.717C155.829 246.22 155.245 242.577 154.954 238.861C154.589 235.145 154.443 231.21 155.318 227.348C155.756 225.381 156.486 223.487 157.58 221.738L158.456 220.499C158.747 220.062 159.112 219.698 159.404 219.334C159.696 218.896 160.134 218.605 160.425 218.241L160.936 217.731C161.009 217.658 161.155 217.512 161.301 217.366L161.739 217.002L162.687 216.638L163.344 216.419L164.657 215.982C165.095 215.836 165.532 215.763 166.043 215.691C166.481 215.618 166.919 215.472 167.429 215.399L168.816 215.181L170.202 215.108C170.639 215.108 171.15 215.108 171.588 215.108C172.026 215.181 172.536 215.181 172.974 215.253C174.871 215.472 176.622 216.055 178.373 216.711C180.051 217.439 181.656 218.314 183.188 219.261C186.179 221.155 188.879 223.341 191.651 225.381C194.351 227.421 197.123 229.389 199.968 231.137C205.659 234.562 211.934 237.039 218.5 238.278C225.066 239.589 231.778 239.881 238.563 239.516L238.782 243.014C231.851 243.378 224.774 243.087 217.843 241.702C210.912 240.391 204.2 237.768 198.145 234.125C195.153 232.303 192.308 230.263 189.536 228.223C186.763 226.183 184.137 223.997 181.364 222.248C178.592 220.499 175.674 219.115 172.609 218.751C172.245 218.678 171.807 218.678 171.442 218.678C171.077 218.678 170.639 218.605 170.275 218.678L169.107 218.751L167.94 218.896C167.575 218.896 167.138 219.042 166.773 219.115C166.408 219.188 165.97 219.261 165.605 219.407L164.438 219.771L163.854 219.917L163.563 219.989L163.49 220.062C163.417 220.135 163.417 220.135 163.344 220.208L162.906 220.645C162.614 220.937 162.322 221.228 162.03 221.519C161.739 221.811 161.52 222.175 161.228 222.467L160.571 223.487C159.696 224.871 159.112 226.401 158.747 228.077C158.018 231.356 158.091 234.926 158.456 238.496C158.82 242.066 159.404 245.782 159.55 249.571C159.623 251.466 159.55 253.433 159.185 255.473C158.82 257.44 158.091 259.408 156.996 261.229C156.705 261.739 156.267 262.103 155.902 262.395C155.683 262.541 155.537 262.686 155.318 262.832L154.735 263.196C154.005 263.634 153.203 263.925 152.473 264.144C151.014 264.581 149.555 264.872 148.096 265.018C145.177 265.382 142.259 265.528 139.414 265.455C133.723 265.382 128.032 264.799 122.415 263.998C116.797 263.269 111.252 262.249 105.707 261.229C100.235 260.136 94.7636 258.898 89.2917 257.586Z" fill="#11101D"/>
<path d="M89.3647 257.076L89.9484 254.672C95.3473 255.983 100.819 257.222 106.291 258.315C111.763 259.408 117.308 260.355 122.779 261.083C128.324 261.812 133.869 262.395 139.414 262.468C142.186 262.541 144.958 262.395 147.585 262.103C148.898 261.958 150.211 261.666 151.452 261.229C152.035 261.011 152.619 260.792 153.13 260.501C153.64 260.209 154.078 259.845 154.297 259.553C155.173 258.169 155.756 256.566 156.048 254.89C156.34 253.214 156.413 251.466 156.34 249.644C156.194 246.074 155.61 242.431 155.318 238.715C154.954 234.999 154.808 231.137 155.683 227.348C156.121 225.454 156.851 223.56 157.872 221.884L158.674 220.645C158.966 220.281 159.331 219.844 159.623 219.479C159.915 219.115 160.28 218.751 160.644 218.386L161.155 217.876C161.228 217.804 161.374 217.658 161.52 217.585L161.885 217.294L162.687 217.002L163.344 216.784L164.657 216.346C165.095 216.201 165.533 216.128 165.97 216.055C166.408 215.982 166.846 215.836 167.283 215.836L168.67 215.691L170.056 215.618C170.494 215.618 171.004 215.618 171.442 215.618C171.88 215.691 172.391 215.618 172.828 215.763C174.652 215.982 176.403 216.565 178.081 217.221C179.759 217.876 181.291 218.751 182.823 219.698C185.815 221.592 188.514 223.778 191.214 225.818C193.913 227.858 196.685 229.826 199.604 231.574C205.367 235.072 211.715 237.549 218.281 238.788C224.92 240.099 231.705 240.391 238.49 240.026L238.636 242.504C231.705 242.868 224.701 242.577 217.843 241.265C210.985 239.954 204.346 237.331 198.363 233.76C195.372 231.939 192.527 229.899 189.754 227.858C186.982 225.818 184.356 223.633 181.51 221.884C178.738 220.062 175.674 218.678 172.536 218.314C172.172 218.241 171.734 218.241 171.369 218.241C171.004 218.241 170.567 218.168 170.202 218.241L169.034 218.314L167.867 218.459C167.502 218.532 167.065 218.605 166.7 218.678C166.335 218.751 165.897 218.824 165.533 218.969L164.365 219.334L163.782 219.552L163.417 219.698L163.271 219.844C163.198 219.917 163.198 219.917 163.125 219.989L162.687 220.427C162.395 220.718 162.031 221.01 161.812 221.374C161.52 221.738 161.228 222.03 161.009 222.394L160.28 223.414C159.404 224.871 158.82 226.474 158.383 228.15C157.58 231.502 157.726 235.145 158.091 238.715C158.456 242.358 159.039 246.001 159.112 249.79C159.185 251.684 159.112 253.579 158.747 255.546C158.383 257.513 157.726 259.408 156.632 261.156C156.34 261.593 155.975 261.958 155.683 262.249C155.537 262.395 155.318 262.541 155.173 262.614L154.662 262.905C153.932 263.342 153.203 263.561 152.473 263.852C151.014 264.289 149.555 264.581 148.169 264.799C145.323 265.164 142.405 265.309 139.56 265.237C133.869 265.164 128.251 264.581 122.633 263.779C117.016 263.051 111.471 262.031 105.999 261.011C100.381 259.626 94.8366 258.388 89.3647 257.076Z" fill="#1C1A31"/>
<path d="M89.5107 256.566L89.8755 255.182C95.2744 256.493 100.746 257.732 106.291 258.825C111.763 259.918 117.308 260.865 122.852 261.593C128.397 262.322 133.942 262.905 139.487 262.978C142.259 263.051 145.031 262.905 147.804 262.613C149.19 262.468 150.503 262.176 151.744 261.739C152.4 261.521 152.984 261.302 153.568 260.938C154.151 260.646 154.589 260.209 154.881 259.845C155.756 258.388 156.413 256.712 156.705 254.963C156.997 253.214 157.07 251.393 156.997 249.644C156.851 246.001 156.267 242.431 155.975 238.715C155.61 235.072 155.464 231.21 156.34 227.494C156.778 225.673 157.434 223.851 158.456 222.175L159.258 221.009C159.55 220.645 159.842 220.281 160.134 219.917C160.426 219.552 160.79 219.188 161.155 218.896L161.666 218.386C161.812 218.241 162.104 218.022 162.249 217.804L162.979 217.512L163.636 217.294L164.876 216.856C165.314 216.711 165.751 216.638 166.189 216.565C166.627 216.492 167.065 216.346 167.502 216.346L168.816 216.201L170.129 216.128C170.567 216.128 171.004 216.128 171.442 216.128C171.88 216.128 172.318 216.128 172.755 216.273C176.33 216.711 179.613 218.314 182.532 220.135C185.45 222.03 188.149 224.143 190.922 226.183C193.621 228.223 196.394 230.263 199.312 232.012C205.149 235.509 211.496 237.986 218.208 239.298C224.847 240.609 231.705 240.901 238.49 240.536L238.563 241.994C231.705 242.358 224.701 242.067 217.916 240.755C211.131 239.443 204.492 236.893 198.582 233.323C195.591 231.574 192.819 229.534 190.046 227.421C187.274 225.381 184.647 223.195 181.802 221.447C178.957 219.625 175.893 218.241 172.609 217.804C172.172 217.731 171.807 217.731 171.369 217.658C170.931 217.658 170.567 217.585 170.129 217.658L168.889 217.731L167.648 217.876C167.211 217.949 166.846 218.022 166.408 218.095C165.97 218.168 165.606 218.241 165.168 218.386L164 218.751L163.417 218.969L162.979 219.115C162.833 219.261 162.76 219.334 162.541 219.479L162.104 219.917C161.812 220.208 161.447 220.499 161.228 220.864C160.936 221.228 160.644 221.52 160.426 221.884L159.696 222.977C158.82 224.507 158.164 226.11 157.726 227.858C156.924 231.356 157.07 234.999 157.361 238.569C157.726 242.212 158.31 245.855 158.383 249.571C158.456 251.466 158.383 253.36 158.018 255.254C157.653 257.149 156.997 258.97 155.975 260.646C155.756 261.011 155.464 261.302 155.1 261.593C154.954 261.739 154.808 261.812 154.589 261.958L154.078 262.249C153.422 262.613 152.692 262.905 152.035 263.124C150.649 263.561 149.19 263.852 147.804 264.071C144.959 264.435 142.113 264.581 139.268 264.508C133.577 264.435 128.032 263.852 122.415 263.051C116.87 262.322 111.325 261.302 105.78 260.282C100.454 259.116 94.9826 257.95 89.5107 256.566Z" fill="#25213B"/>
<path d="M247.172 245.491H246.807H242.868H241.773H238.271C236.812 245.491 235.499 244.835 234.55 243.815C233.748 242.941 233.31 241.775 233.31 240.536C233.31 239.516 233.602 238.496 234.186 237.695C235.061 236.383 236.593 235.582 238.271 235.582H241.846H242.868H246.807H247.172V245.491Z" fill="#25213B"/>
<path d="M246.88 268.807C244.619 268.297 242.941 266.329 242.941 263.925V259.918L242.868 245.491H241.773V235.655H242.795L242.722 222.54V217.294C242.722 215.108 244.181 213.213 246.151 212.485H246.661V222.831L246.734 235.655V245.564L246.807 260.282L246.88 268.807Z" fill="#0F0B26"/>
<path d="M264.025 268.88H260.815H258.918H247.975C247.61 268.88 247.245 268.807 246.88 268.734C244.619 268.224 242.941 266.257 242.941 263.852V259.845L242.868 245.418V235.509L242.795 222.394V217.148C242.795 214.962 244.254 213.068 246.224 212.339C246.734 212.193 247.245 212.048 247.829 212.048H258.991H260.669H263.879V222.394L264.025 259.845V268.88Z" fill="#25213B"/>
<path d="M264.025 268.88L260.815 268.952H258.918V212.12H260.596H263.879V222.467L264.025 259.918V268.88Z" fill="#0F0B26"/>
<path d="M311.448 271.576H306.195H304.079H302.401L264.901 271.721C263.004 271.721 261.399 270.555 260.815 268.953C260.596 268.442 260.523 267.932 260.523 267.422V259.991L260.377 222.54V213.723C260.377 213.213 260.45 212.63 260.669 212.193C261.326 210.517 262.858 209.352 264.755 209.352L302.474 209.206H303.933H306.268H311.229H311.302V209.789L311.375 222.612L311.521 260.063L311.448 271.576Z" fill="#25213B"/>
<path d="M306.195 209.133V271.576H304.079H302.401V209.133H303.86H306.195Z" fill="#0F0B26"/>
<path opacity="0.14" d="M234.259 243.305C234.404 243.524 234.55 243.742 234.769 243.888C235.645 244.762 236.885 245.345 238.271 245.345H242.868V243.305H234.259Z" fill="#25213B"/>
<path opacity="0.05" d="M234.259 237.476V237.622H242.868V235.436H238.271C236.666 235.509 235.207 236.31 234.259 237.476Z" fill="#FFD700"/>
<path d="M311.448 270.993C311.448 271.211 311.448 271.357 311.375 271.576C311.083 273.324 309.551 274.709 307.727 274.709C305.903 274.709 304.371 273.397 304.079 271.576C304.079 271.357 304.006 271.211 304.006 270.993V259.918L303.86 222.467L303.787 209.716C303.787 209.497 303.787 209.352 303.86 209.133C304.152 207.384 305.684 206 307.508 206C309.332 206 310.937 207.312 311.156 209.133C311.156 209.352 311.229 209.497 311.229 209.716L311.302 222.54L311.448 259.99V270.993Z" fill="#25213B"/>
<path opacity="0.14" d="M311.448 271.576C311.156 273.324 309.624 274.709 307.727 274.709C305.903 274.709 304.371 273.397 304.079 271.576L264.901 271.721C263.004 271.721 261.399 270.555 260.815 268.953H247.975C245.202 268.953 242.941 266.694 242.868 263.925V259.918H311.375L311.448 271.576Z" fill="#25213B"/>
<path opacity="0.05" d="M311.302 222.467H242.795V217.221C242.795 214.452 245.056 212.193 247.829 212.12H258.991H260.669C261.326 210.445 262.858 209.279 264.755 209.279L302.474 209.133H303.933C304.225 207.384 305.757 206 307.581 206C309.405 206 311.01 207.312 311.229 209.133H311.302V209.716V222.467Z" fill="#FFD700"/>
</g>
<path d="M146.955 99.92C148.379 99.92 149.611 100.192 150.651 100.736C151.691 101.264 152.571 102.048 153.291 103.088L151.563 104.744C150.955 103.816 150.267 103.152 149.499 102.752C148.747 102.336 147.851 102.128 146.811 102.128C146.043 102.128 145.411 102.232 144.915 102.44C144.419 102.648 144.051 102.928 143.811 103.28C143.587 103.616 143.475 104 143.475 104.432C143.475 104.928 143.643 105.36 143.979 105.728C144.331 106.096 144.979 106.384 145.923 106.592L149.139 107.312C150.675 107.648 151.763 108.16 152.403 108.848C153.043 109.536 153.363 110.408 153.363 111.464C153.363 112.44 153.099 113.288 152.571 114.008C152.043 114.728 151.307 115.28 150.363 115.664C149.435 116.048 148.339 116.24 147.075 116.24C145.955 116.24 144.947 116.096 144.051 115.808C143.155 115.52 142.371 115.128 141.699 114.632C141.027 114.136 140.475 113.568 140.043 112.928L141.819 111.152C142.155 111.712 142.579 112.216 143.091 112.664C143.603 113.096 144.195 113.432 144.867 113.672C145.555 113.912 146.315 114.032 147.147 114.032C147.883 114.032 148.515 113.944 149.043 113.768C149.587 113.592 149.995 113.336 150.267 113C150.555 112.648 150.699 112.232 150.699 111.752C150.699 111.288 150.539 110.88 150.219 110.528C149.915 110.176 149.339 109.904 148.491 109.712L145.011 108.92C144.051 108.712 143.259 108.416 142.635 108.032C142.011 107.648 141.547 107.184 141.243 106.64C140.939 106.08 140.787 105.456 140.787 104.768C140.787 103.872 141.027 103.064 141.507 102.344C142.003 101.608 142.715 101.024 143.643 100.592C144.571 100.144 145.675 99.92 146.955 99.92ZM163.53 99.92C165.066 99.92 166.394 100.248 167.514 100.904C168.634 101.56 169.498 102.496 170.106 103.712C170.714 104.928 171.018 106.384 171.018 108.08C171.018 109.776 170.714 111.232 170.106 112.448C169.498 113.664 168.634 114.6 167.514 115.256C166.394 115.912 165.066 116.24 163.53 116.24C162.01 116.24 160.69 115.912 159.57 115.256C158.45 114.6 157.586 113.664 156.978 112.448C156.37 111.232 156.066 109.776 156.066 108.08C156.066 106.384 156.37 104.928 156.978 103.712C157.586 102.496 158.45 101.56 159.57 100.904C160.69 100.248 162.01 99.92 163.53 99.92ZM163.53 102.152C162.538 102.152 161.682 102.384 160.962 102.848C160.258 103.312 159.714 103.984 159.33 104.864C158.946 105.744 158.754 106.816 158.754 108.08C158.754 109.328 158.946 110.4 159.33 111.296C159.714 112.176 160.258 112.848 160.962 113.312C161.682 113.776 162.538 114.008 163.53 114.008C164.538 114.008 165.394 113.776 166.098 113.312C166.818 112.848 167.37 112.176 167.754 111.296C168.138 110.4 168.33 109.328 168.33 108.08C168.33 106.816 168.138 105.744 167.754 104.864C167.37 103.984 166.818 103.312 166.098 102.848C165.394 102.384 164.538 102.152 163.53 102.152ZM181.292 100.16C182.988 100.16 184.332 100.584 185.324 101.432C186.332 102.28 186.836 103.424 186.836 104.864C186.836 106.352 186.332 107.504 185.324 108.32C184.332 109.12 182.988 109.52 181.292 109.52L181.052 109.664H177.38V116H174.836V100.16H181.292ZM181.1 107.528C182.14 107.528 182.908 107.32 183.404 106.904C183.916 106.472 184.172 105.816 184.172 104.936C184.172 104.072 183.916 103.424 183.404 102.992C182.908 102.56 182.14 102.344 181.1 102.344H177.38V107.528H181.1ZM182.612 108.056L187.772 116H184.82L180.404 109.064L182.612 108.056ZM197.417 100.16C199.113 100.16 200.457 100.584 201.449 101.432C202.457 102.28 202.961 103.424 202.961 104.864C202.961 106.352 202.457 107.504 201.449 108.32C200.457 109.12 199.113 109.52 197.417 109.52L197.177 109.664H193.505V116H190.961V100.16H197.417ZM197.225 107.528C198.265 107.528 199.033 107.32 199.529 106.904C200.041 106.472 200.297 105.816 200.297 104.936C200.297 104.072 200.041 103.424 199.529 102.992C199.033 102.56 198.265 102.344 197.225 102.344H193.505V107.528H197.225ZM198.737 108.056L203.897 116H200.945L196.529 109.064L198.737 108.056ZM218.167 100.16L212.503 109.928V116H209.935V109.928L204.295 100.16H207.151L209.983 105.272L211.231 107.624L212.479 105.272L215.287 100.16H218.167ZM218.311 112.76C218.759 112.76 219.127 112.872 219.415 113.096C219.719 113.304 219.951 113.6 220.111 113.984C220.271 114.352 220.351 114.776 220.351 115.256C220.351 115.848 220.239 116.416 220.015 116.96C219.791 117.52 219.463 118.024 219.031 118.472C218.615 118.936 218.111 119.312 217.519 119.6L216.319 118.568C216.751 118.408 217.135 118.2 217.471 117.944C217.807 117.688 218.087 117.4 218.311 117.08C218.551 116.76 218.719 116.432 218.815 116.096L218.719 116.048C218.639 116.096 218.543 116.136 218.431 116.168C218.335 116.2 218.191 116.216 217.999 116.216C217.775 116.216 217.543 116.152 217.303 116.024C217.079 115.912 216.887 115.736 216.727 115.496C216.567 115.256 216.487 114.944 216.487 114.56C216.487 114.208 216.567 113.896 216.727 113.624C216.903 113.352 217.127 113.144 217.399 113C217.671 112.84 217.975 112.76 218.311 112.76ZM242.964 100.16V102.368H237.54V116H234.972V102.368H229.548V100.16H242.964ZM259.024 100.16V116H256.432V100.16H259.024ZM248.608 100.16V116H246.04V100.16H248.608ZM257.728 106.88V109.088H247.336V106.88H257.728ZM263.711 116V100.16H275.183V102.368H266.279V106.928H273.239V109.088H266.279V113.792H275.519V116H263.711ZM292.87 100.16C294.006 100.16 294.982 100.36 295.798 100.76C296.63 101.16 297.278 101.728 297.742 102.464C298.206 103.2 298.438 104.088 298.438 105.128C298.438 106.152 298.206 107.04 297.742 107.792C297.278 108.528 296.63 109.096 295.798 109.496C294.982 109.896 294.006 110.096 292.87 110.096H289.342V116H286.774V100.16H292.87ZM292.462 107.888C293.598 107.888 294.43 107.656 294.958 107.192C295.502 106.712 295.774 106.024 295.774 105.128C295.774 104.216 295.502 103.528 294.958 103.064C294.43 102.584 293.598 102.344 292.462 102.344H289.342V107.888H292.462ZM313.684 116H310.972L309.46 111.848H302.812L301.3 116H298.66L304.636 100.16H307.708L313.684 116ZM303.532 109.76H308.74L306.148 102.368L303.532 109.76ZM322.362 116.24C320.874 116.24 319.586 115.912 318.498 115.256C317.41 114.6 316.562 113.672 315.954 112.472C315.346 111.256 315.042 109.792 315.042 108.08C315.042 106.4 315.354 104.952 315.978 103.736C316.618 102.52 317.514 101.584 318.666 100.928C319.834 100.256 321.17 99.92 322.674 99.92C324.322 99.92 325.65 100.224 326.658 100.832C327.682 101.44 328.498 102.384 329.106 103.664L326.73 104.792C326.426 103.912 325.922 103.256 325.218 102.824C324.53 102.376 323.69 102.152 322.698 102.152C321.706 102.152 320.834 102.384 320.082 102.848C319.346 103.312 318.77 103.992 318.354 104.888C317.938 105.768 317.73 106.832 317.73 108.08C317.73 109.344 317.914 110.424 318.282 111.32C318.65 112.2 319.202 112.872 319.938 113.336C320.69 113.8 321.61 114.032 322.698 114.032C323.29 114.032 323.842 113.96 324.354 113.816C324.866 113.656 325.314 113.432 325.698 113.144C326.082 112.84 326.378 112.464 326.586 112.016C326.81 111.552 326.922 111.008 326.922 110.384V109.928H322.314V107.84H329.202V116H327.282L327.138 112.808L327.618 113.048C327.234 114.056 326.594 114.84 325.698 115.4C324.818 115.96 323.706 116.24 322.362 116.24ZM333.297 116V100.16H344.769V102.368H335.865V106.928H342.825V109.088H335.865V113.792H345.105V116H333.297ZM361.952 100.16C364.432 100.16 366.36 100.848 367.736 102.224C369.128 103.584 369.824 105.536 369.824 108.08C369.824 110.624 369.128 112.584 367.736 113.96C366.36 115.32 364.432 116 361.952 116H356.36V100.16H361.952ZM361.952 113.816C363.632 113.816 364.912 113.32 365.792 112.328C366.688 111.32 367.136 109.904 367.136 108.08C367.136 106.256 366.688 104.848 365.792 103.856C364.912 102.848 363.632 102.344 361.952 102.344H358.928V113.816H361.952ZM380.209 99.92C381.745 99.92 383.073 100.248 384.193 100.904C385.313 101.56 386.177 102.496 386.785 103.712C387.393 104.928 387.697 106.384 387.697 108.08C387.697 109.776 387.393 111.232 386.785 112.448C386.177 113.664 385.313 114.6 384.193 115.256C383.073 115.912 381.745 116.24 380.209 116.24C378.689 116.24 377.369 115.912 376.249 115.256C375.129 114.6 374.265 113.664 373.657 112.448C373.049 111.232 372.745 109.776 372.745 108.08C372.745 106.384 373.049 104.928 373.657 103.712C374.265 102.496 375.129 101.56 376.249 100.904C377.369 100.248 378.689 99.92 380.209 99.92ZM380.209 102.152C379.217 102.152 378.361 102.384 377.641 102.848C376.937 103.312 376.393 103.984 376.009 104.864C375.625 105.744 375.433 106.816 375.433 108.08C375.433 109.328 375.625 110.4 376.009 111.296C376.393 112.176 376.937 112.848 377.641 113.312C378.361 113.776 379.217 114.008 380.209 114.008C381.217 114.008 382.073 113.776 382.777 113.312C383.497 112.848 384.049 112.176 384.433 111.296C384.817 110.4 385.009 109.328 385.009 108.08C385.009 106.816 384.817 105.744 384.433 104.864C384.049 103.984 383.497 103.312 382.777 102.848C382.073 102.384 381.217 102.152 380.209 102.152ZM391.516 116V100.16H402.988V102.368H394.084V106.928H401.044V109.088H394.084V113.792H403.324V116H391.516ZM412.174 99.92C413.598 99.92 414.83 100.192 415.87 100.736C416.91 101.264 417.79 102.048 418.51 103.088L416.782 104.744C416.174 103.816 415.486 103.152 414.718 102.752C413.966 102.336 413.07 102.128 412.03 102.128C411.262 102.128 410.63 102.232 410.134 102.44C409.638 102.648 409.27 102.928 409.03 103.28C408.806 103.616 408.694 104 408.694 104.432C408.694 104.928 408.862 105.36 409.198 105.728C409.55 106.096 410.198 106.384 411.142 106.592L414.358 107.312C415.894 107.648 416.982 108.16 417.622 108.848C418.262 109.536 418.582 110.408 418.582 111.464C418.582 112.44 418.318 113.288 417.79 114.008C417.262 114.728 416.526 115.28 415.582 115.664C414.654 116.048 413.558 116.24 412.294 116.24C411.174 116.24 410.166 116.096 409.27 115.808C408.374 115.52 407.59 115.128 406.918 114.632C406.246 114.136 405.694 113.568 405.262 112.928L407.038 111.152C407.374 111.712 407.798 112.216 408.31 112.664C408.822 113.096 409.414 113.432 410.086 113.672C410.774 113.912 411.534 114.032 412.366 114.032C413.102 114.032 413.734 113.944 414.262 113.768C414.806 113.592 415.214 113.336 415.486 113C415.774 112.648 415.918 112.232 415.918 111.752C415.918 111.288 415.758 110.88 415.438 110.528C415.134 110.176 414.558 109.904 413.71 109.712L410.23 108.92C409.27 108.712 408.478 108.416 407.854 108.032C407.23 107.648 406.766 107.184 406.462 106.64C406.158 106.08 406.006 105.456 406.006 104.768C406.006 103.872 406.246 103.064 406.726 102.344C407.222 101.608 407.934 101.024 408.862 100.592C409.79 100.144 410.894 99.92 412.174 99.92ZM435.156 100.16V116H432.108L425.988 106.016L424.452 103.208H424.428L424.524 105.776V116H422.172V100.16H425.196L431.292 110.12L432.852 112.976H432.876L432.78 110.384V100.16H435.156ZM440.78 99.296C441.228 99.296 441.596 99.408 441.884 99.632C442.188 99.84 442.42 100.136 442.58 100.52C442.74 100.888 442.82 101.312 442.82 101.792C442.82 102.384 442.708 102.96 442.484 103.52C442.26 104.064 441.932 104.568 441.5 105.032C441.084 105.48 440.58 105.848 439.988 106.136L438.788 105.104C439.22 104.944 439.604 104.736 439.94 104.48C440.276 104.224 440.556 103.936 440.78 103.616C441.02 103.296 441.188 102.968 441.284 102.632L441.188 102.584C441.108 102.632 441.012 102.672 440.9 102.704C440.804 102.736 440.66 102.752 440.468 102.752C440.244 102.752 440.012 102.696 439.772 102.584C439.548 102.456 439.356 102.272 439.196 102.032C439.036 101.792 438.956 101.48 438.956 101.096C438.956 100.744 439.036 100.432 439.196 100.16C439.372 99.888 439.596 99.68 439.868 99.536C440.14 99.376 440.444 99.296 440.78 99.296ZM458.027 100.16V102.368H452.603V116H450.035V102.368H444.611V100.16H458.027ZM468.321 116V100.16H479.793V102.368H470.889V106.928H477.849V109.088H470.889V113.792H480.129V116H468.321ZM495.507 116H492.483L488.571 109.904L484.683 116H481.731L487.227 107.96L482.163 100.16H485.187L488.811 105.92L492.483 100.16H495.291L490.155 107.864L495.507 116ZM501.029 100.16V116H498.461V100.16H501.029ZM511.127 99.92C512.551 99.92 513.783 100.192 514.823 100.736C515.863 101.264 516.743 102.048 517.463 103.088L515.735 104.744C515.127 103.816 514.439 103.152 513.671 102.752C512.919 102.336 512.023 102.128 510.983 102.128C510.215 102.128 509.583 102.232 509.087 102.44C508.591 102.648 508.223 102.928 507.983 103.28C507.759 103.616 507.647 104 507.647 104.432C507.647 104.928 507.815 105.36 508.151 105.728C508.503 106.096 509.151 106.384 510.095 106.592L513.311 107.312C514.847 107.648 515.935 108.16 516.575 108.848C517.215 109.536 517.535 110.408 517.535 111.464C517.535 112.44 517.271 113.288 516.743 114.008C516.215 114.728 515.479 115.28 514.535 115.664C513.607 116.048 512.511 116.24 511.247 116.24C510.127 116.24 509.119 116.096 508.223 115.808C507.327 115.52 506.543 115.128 505.871 114.632C505.199 114.136 504.647 113.568 504.215 112.928L505.991 111.152C506.327 111.712 506.751 112.216 507.263 112.664C507.775 113.096 508.367 113.432 509.039 113.672C509.727 113.912 510.487 114.032 511.319 114.032C512.055 114.032 512.687 113.944 513.215 113.768C513.759 113.592 514.167 113.336 514.439 113C514.727 112.648 514.871 112.232 514.871 111.752C514.871 111.288 514.711 110.88 514.391 110.528C514.087 110.176 513.511 109.904 512.663 109.712L509.183 108.92C508.223 108.712 507.431 108.416 506.807 108.032C506.183 107.648 505.719 107.184 505.415 106.64C505.111 106.08 504.959 105.456 504.959 104.768C504.959 103.872 505.199 103.064 505.679 102.344C506.175 101.608 506.887 101.024 507.815 100.592C508.743 100.144 509.847 99.92 511.127 99.92ZM532.324 100.16V102.368H526.9V116H524.332V102.368H518.908V100.16H532.324ZM537.751 100.16V106.496L537.415 110.96H535.399L535.063 106.496V100.16H537.751ZM536.407 112.832C536.951 112.832 537.383 112.992 537.703 113.312C538.039 113.616 538.207 114.024 538.207 114.536C538.207 115.048 538.039 115.456 537.703 115.76C537.383 116.064 536.951 116.216 536.407 116.216C535.879 116.216 535.447 116.064 535.111 115.76C534.791 115.456 534.631 115.048 534.631 114.536C534.631 114.024 534.791 113.616 535.111 113.312C535.447 112.992 535.879 112.832 536.407 112.832Z" fill="black"/>
<defs>
<clipPath id="clip0_366_3496">
<rect width="501" height="69" fill="white" transform="translate(89 206)"/>
</clipPath>
</defs>
</svg>
