<svg width="40" height="31" viewBox="0 0 40 31" fill="none" xmlns="http://www.w3.org/2000/svg">
<path d="M39.2943 1.31824C38.5553 0.372837 37.5699 0 36.3915 0C25.4594 0.00665779 14.5206 0.0066582 3.58855 0.0066582C3.40879 0.0066582 3.22237 0.0133152 3.04261 0.0266307C2.14381 0.113182 1.41145 0.499335 0.81225 1.17177C0.366178 1.67111 0.173103 2.28362 0 2.90945V25.0999C0.23968 25.6391 0.359521 26.2983 0.75233 26.6911C1.28495 27.2304 1.38482 27.7896 1.33822 28.4687C1.31158 28.8415 1.33156 29.221 1.33156 29.6005V30.6325H5.33955V28.0226H34.6871V30.6391H38.6684C38.6684 29.6205 38.6618 28.6218 38.6818 27.6232C38.6818 27.4567 38.775 27.2503 38.9015 27.1371C39.4541 26.6045 39.8269 25.9854 39.9401 25.2197C39.98 24.9601 40 24.7004 40 24.4407C40 17.49 40 10.5326 40 3.58189C39.9933 2.74967 39.8136 1.98402 39.2943 1.31824ZM3.96139 29.3076H2.66977V28.0226H3.96139V29.3076ZM37.3036 29.3009H36.032V28.0093H37.3036V29.3009ZM38.6618 24.4341C38.6618 25.5992 38.0692 26.4048 37.0573 26.6178C36.8708 26.6578 36.6711 26.6644 36.478 26.6644C25.486 26.6644 14.5007 26.6644 3.51531 26.6644C2.15047 26.6644 1.33822 25.8389 1.33822 24.4674C1.33822 17.49 1.33822 10.506 1.33822 3.52863C1.33822 2.16378 2.15712 1.34487 3.52863 1.34487C9.02131 1.34487 14.5206 1.34487 20.0133 1.34487C25.4527 1.34487 30.8988 1.3715 36.3382 1.33156C37.8429 1.31824 38.6951 2.31691 38.6884 3.70173C38.6418 10.6059 38.6618 17.5166 38.6618 24.4341Z" fill="black"/>
<path d="M4.01367 4.02124V23.9746H27.9684V4.02124H4.01367ZM26.6235 22.6431H5.33857V19.3608H26.6235V22.6431ZM26.6235 17.9693H5.33857V5.35946H26.6235V17.9693Z" fill="black"/>
<path d="M33.3164 4.00124C31.4988 4.0079 29.9875 5.52588 29.9942 7.3368C30.0075 9.16769 31.5055 10.659 33.3364 10.6524C35.1673 10.6457 36.6586 9.14771 36.652 7.31682C36.6386 5.49259 35.134 3.99459 33.3164 4.00124ZM35.3071 7.52321C35.2405 8.4553 34.4349 9.25424 33.5028 9.31416C32.4509 9.38074 31.5787 8.72827 31.3723 7.71629C31.1793 6.76422 31.6986 5.82548 32.6573 5.49259V7.30351H33.9755V5.51922C34.8077 5.69232 35.3737 6.57115 35.3071 7.52321Z" fill="black"/>
<path d="M33.3091 11.9972C31.4782 12.0238 29.9802 13.5418 30.0002 15.346C30.0202 17.1703 31.5515 18.6883 33.3491 18.6616C35.1933 18.635 36.6646 17.137 36.6513 15.3128C36.6314 13.4819 35.1134 11.9705 33.3091 11.9972ZM35.2998 15.619C35.1733 16.5844 34.3011 17.3367 33.3291 17.3301C32.3171 17.3234 31.4915 16.5977 31.3451 15.5857C31.2186 14.6736 31.7845 13.7415 32.65 13.5085V15.3194H33.9749V13.5018C34.8604 13.7349 35.4263 14.6736 35.2998 15.619Z" fill="black"/>
<path d="M35.9718 20.0332H30.6855V21.3182H35.9718V20.0332Z" fill="black"/>
<path d="M35.9918 22.7031H30.6855V23.9681H35.9918V22.7031Z" fill="black"/>
</svg>
