<svg width="42" height="42" viewBox="0 0 42 42" fill="none" xmlns="http://www.w3.org/2000/svg">
<path d="M41.2924 8.19806C41.2924 8.06074 41.2993 7.92342 41.2718 7.79297C41.2032 7.47713 41.0041 7.28488 40.6814 7.27801C40.3449 7.27115 40.1115 7.44967 40.0634 7.79983C40.0359 7.98522 40.0359 8.17747 40.0359 8.36285C40.0359 17.7625 40.0359 27.1621 40.0359 36.5617V37.111H1.31142V1.29768H40.0359C40.0359 2.54044 40.0359 3.74886 40.0359 4.95042C40.0359 5.12207 40.0016 5.34179 40.084 5.46538C40.2145 5.65763 40.4136 5.85674 40.6264 5.91854C40.9148 6.00779 41.1482 5.81554 41.2444 5.52717C41.2924 5.38985 41.2924 5.23193 41.2924 5.08774C41.2924 3.70767 41.2924 2.32759 41.2924 0.940649C41.2924 0.185383 41.107 0 40.3655 0H0.947515C0.19225 0 0.00686542 0.185383 0.00686542 0.926917C0.00686542 14.1715 0.00686605 27.4161 0 40.6608C0 41.0521 0.0686605 41.3817 0.411963 41.6014H40.8873C41.2306 41.3748 41.2993 41.0521 41.2993 40.6608C41.2924 29.8467 41.2924 19.0258 41.2924 8.19806ZM13.2309 40.3243H1.29768V38.443H13.2309V40.3243ZM26.757 40.3106H14.5217V38.4567H26.757V40.3106ZM39.9879 40.3312H28.0684V38.443H39.9879V40.3312Z" fill="black"/>
<path d="M13.2233 3.24764C8.38277 3.22704 4.40732 7.18875 4.39359 12.043C4.37986 16.8699 8.36217 20.8659 13.2027 20.8659C18.0364 20.8659 22.0256 16.8767 22.0187 12.043C22.005 7.20248 18.0708 3.26137 13.2233 3.24764ZM13.2027 19.5888C9.04191 19.5888 5.66381 16.2039 5.66381 12.043C5.66381 7.88222 9.05564 4.49039 13.2027 4.49726C17.3567 4.49726 20.7417 7.89595 20.7417 12.0499C20.7417 16.2176 17.3636 19.5957 13.2027 19.5888Z" fill="black"/>
<path d="M13.1894 22.7608C9.63281 22.7746 6.73534 25.6858 6.74907 29.2355C6.7628 32.7921 9.66714 35.6827 13.2238 35.6759C16.7735 35.669 19.6778 32.7509 19.671 29.2012C19.6572 25.6514 16.7323 22.7471 13.1894 22.7608ZM13.2032 34.4125C10.3332 34.4056 8.01243 32.0781 8.01243 29.2149C8.01929 26.3449 10.34 24.0242 13.21 24.031C16.08 24.0379 18.4008 26.3586 18.3939 29.2286C18.3939 32.0987 16.0663 34.4194 13.2032 34.4125Z" fill="black"/>
<path d="M30.7877 5.93915C27.4302 5.93915 24.7113 8.6581 24.6838 12.0293C24.6563 15.3937 27.4028 18.1539 30.7877 18.1539C34.1452 18.1539 36.8848 15.428 36.9054 12.0705C36.9122 8.71303 34.1521 5.93915 30.7877 5.93915ZM30.7671 16.9042C28.1031 16.8974 25.9197 14.6934 25.9334 12.0293C25.9472 9.37217 28.11 7.21623 30.774 7.20937C33.4586 7.2025 35.6283 9.36531 35.6214 12.0568C35.6214 14.7346 33.4449 16.9111 30.7671 16.9042Z" fill="black"/>
<path d="M30.8078 23.1041C27.4709 23.0698 24.7244 25.7956 24.6832 29.1737C24.6352 32.5244 27.3816 35.3051 30.7666 35.3326C34.0966 35.36 36.8705 32.6136 36.8979 29.2561C36.9323 25.9055 34.1927 23.1385 30.8078 23.1041ZM30.7872 34.0624C28.1231 34.0624 25.9535 31.9133 25.9329 29.2561C25.9123 26.5852 28.0888 24.3881 30.7597 24.3812C33.4512 24.3744 35.614 26.5234 35.6277 29.2149C35.6346 31.8927 33.4718 34.0555 30.7872 34.0624Z" fill="black"/>
<path d="M13.1964 6.90027C10.3676 6.90713 8.06062 9.20726 8.04689 12.0361C8.04002 14.8718 10.3813 17.2131 13.2102 17.2062C16.0321 17.1993 18.3528 14.8786 18.3597 12.0567C18.3734 9.22099 16.0458 6.90027 13.1964 6.90027ZM13.2102 15.936C11.0817 15.9429 9.33771 14.2057 9.32398 12.0704C9.31024 9.94879 11.0268 8.21168 13.1827 8.16362C15.2837 8.11556 17.0963 9.91447 17.0895 12.0635C17.0826 14.1851 15.3386 15.9291 13.2102 15.936Z" fill="black"/>
<path d="M30.7592 25.9879C28.9809 26.0017 27.5391 27.4573 27.5459 29.2287C27.5528 31.0002 29.0084 32.4489 30.7798 32.442C32.5581 32.442 34 31.0002 34.0137 29.2219C34.0343 27.4504 32.5444 25.9742 30.7592 25.9879ZM30.7798 31.1993C29.7156 31.1993 28.823 30.3136 28.8024 29.2356C28.7818 28.1645 29.7019 27.2376 30.7798 27.2376C31.8509 27.2376 32.7435 28.1233 32.7573 29.1944C32.7641 30.2861 31.8715 31.1993 30.7798 31.1993Z" fill="black"/>
</svg>
