<svg width="42" height="42" viewBox="0 0 42 42" fill="none" xmlns="http://www.w3.org/2000/svg">
<path d="M0 9.02734C0 7.41689 0 5.79935 0 4.1889C0.425669 3.0325 1.27701 2.63521 2.46888 2.69906C3.50467 2.75581 4.54756 2.71324 5.58336 2.71324C5.71106 2.71324 5.84585 2.71324 5.99484 2.71324C5.99484 2.28048 5.98774 1.91157 5.99484 1.54265C6.01612 0.620372 6.62625 0.0102469 7.55562 0.0102469C10.3154 0.00315245 13.0751 0.00315245 15.842 0.0102469C16.7714 0.0102469 17.3815 0.620372 17.3957 1.54265C17.4028 1.91866 17.3957 2.30176 17.3957 2.68487C19.822 2.68487 22.1915 2.68487 24.6037 2.68487C24.6037 2.30176 24.6037 1.93285 24.6037 1.57103C24.6108 0.613279 25.2067 0.0102476 26.1645 0.0031531C28.91 -0.00394138 31.6556 0.0031531 34.4082 0.0031531C35.3802 0.0031531 35.9903 0.613278 35.9974 1.59232C36.0045 1.95414 35.9974 2.31596 35.9974 2.70615C37.3666 2.70615 38.6791 2.69906 39.9845 2.70615C41.1906 2.71325 41.9852 3.50783 41.9922 4.71389C41.9993 5.8632 41.9781 7.0125 41.9993 8.15471C42.0064 8.80741 41.9639 9.43882 41.4956 9.94962C41.8858 10.4179 41.9993 10.9358 41.9993 11.5033C41.9922 18.2005 41.9922 24.8977 41.9922 31.5878C41.9922 33.1628 41.9993 34.7306 41.9922 36.3056C41.9852 37.2421 41.3679 37.9941 40.4669 38.1786C40.2967 38.214 40.1193 38.2211 39.8923 38.2424C39.8923 38.8313 39.8923 39.413 39.8923 40.0019C39.8923 40.6262 39.6794 41.1653 39.1686 41.5343C38.892 41.7329 38.5372 41.8393 38.218 41.9812C34.0606 41.9812 29.9103 41.9812 25.753 41.9812C25.4692 41.7755 25.2209 41.5414 25.3557 41.1441C25.4976 40.7326 25.8452 40.7255 26.1999 40.7326C26.3205 40.7397 26.4482 40.7326 26.5688 40.7326C30.258 40.7326 33.9471 40.7326 37.6433 40.7326C37.7923 40.7326 37.9697 40.7752 38.0903 40.7042C38.2889 40.5907 38.594 40.4275 38.6082 40.2573C38.6649 39.5904 38.6295 38.9093 38.6295 38.2353C26.8597 38.2353 15.1183 38.2353 3.3415 38.2353C3.3415 38.7461 3.3415 39.2356 3.3415 39.7252C3.3415 40.5623 3.51177 40.7326 4.34892 40.7326C10.4573 40.7326 16.5656 40.7326 22.6811 40.7326C22.8442 40.7326 23.0358 40.69 23.1635 40.7539C23.355 40.8461 23.5892 41.0022 23.6459 41.1795C23.6956 41.3569 23.5679 41.5981 23.4756 41.7968C23.4402 41.8819 23.3054 41.9174 23.2132 41.9812C16.7359 41.9812 10.2515 41.9812 3.77427 41.9812C2.41213 41.4917 2.10706 41.0447 2.10706 39.562C2.10706 39.1221 2.10706 38.6752 2.10706 38.2424C1.85876 38.2069 1.6672 38.1999 1.48275 38.1573C0.695259 37.987 0.28378 37.4266 0.00709492 36.7313C0.00709492 28.0973 0.00709492 19.4562 0.00709492 10.8222C0.156079 10.5314 0.312157 10.2334 0.454046 9.96381C0.297968 9.65165 0.148984 9.33949 0 9.02734ZM20.9926 10.5739C14.7352 10.5739 8.47081 10.5739 2.21348 10.5739C1.4118 10.5739 1.23444 10.7584 1.23444 11.5672C1.23444 19.7116 1.23444 27.8561 1.23444 36.0006C1.23444 36.8022 1.4189 36.9867 2.22057 36.9867C14.7423 36.9867 27.2641 36.9867 39.7859 36.9867C40.5804 36.9867 40.7649 36.8022 40.7649 35.9935C40.7649 27.849 40.7649 19.7045 40.7649 11.5601C40.7649 10.7584 40.5804 10.5739 39.7788 10.5739C33.5143 10.5739 27.257 10.5739 20.9926 10.5739ZM20.9997 3.94059C14.714 3.94059 8.42825 3.94059 2.13544 3.94059C1.44728 3.94059 1.22734 4.15342 1.22734 4.84159C1.22734 6.00508 1.22734 7.16149 1.22734 8.32498C1.22734 9.15504 1.4118 9.34659 2.22767 9.34659C5.10803 9.34659 7.99548 9.34659 10.8758 9.34659C20.5101 9.34659 30.1445 9.34659 39.7859 9.34659C40.5521 9.34659 40.7578 9.14794 40.7578 8.37464C40.7578 7.23953 40.7578 6.10441 40.7578 4.96929C40.7578 4.11086 40.5875 3.9335 39.7362 3.9335C33.4931 3.94059 27.2428 3.94059 20.9997 3.94059ZM16.1612 2.68487C16.1612 2.35143 16.1612 2.05346 16.1612 1.75549C16.1612 1.24469 16.147 1.23759 15.6221 1.23759C13.1886 1.23759 10.7623 1.23759 8.32892 1.23759C8.08062 1.23759 7.8394 1.24469 7.5911 1.23759C7.35698 1.2305 7.22928 1.33691 7.22928 1.57813C7.22928 1.93995 7.22928 2.30886 7.22928 2.69196C10.2161 2.68487 13.1603 2.68487 16.1612 2.68487ZM34.7204 2.69196C34.7417 2.62102 34.7559 2.59973 34.7559 2.57136C34.763 2.32305 34.763 2.08184 34.763 1.83353C34.763 1.23759 34.7559 1.2305 34.1741 1.2305C31.5775 1.2305 28.981 1.2305 26.3844 1.2305C26.2922 1.2305 26.1786 1.20212 26.1006 1.23759C25.9942 1.29435 25.8452 1.39367 25.8381 1.4788C25.8097 1.8761 25.8239 2.28048 25.8239 2.68487C28.8391 2.69196 31.7691 2.69196 34.7204 2.69196Z" fill="black"/>
<path d="M34.84 18.619C34.84 18.8389 34.84 19.0021 34.84 19.1582C34.84 23.4645 34.84 27.7638 34.84 32.0701C34.84 33.2194 34.2441 34.0566 33.2366 34.312C32.9883 34.3758 32.7258 34.3829 32.4633 34.3829C24.8226 34.3829 17.1818 34.39 9.54106 34.3829C7.98737 34.3829 7.15022 33.5316 7.15022 31.9637C7.15022 27.6857 7.15022 23.4078 7.15022 19.1369C7.15022 18.9737 7.15022 18.8176 7.15022 18.6119C6.85225 18.6119 6.59685 18.619 6.34145 18.6119C5.51849 18.5906 4.92255 18.0089 4.90127 17.1859C4.88708 16.6254 4.88708 16.065 4.90127 15.5045C4.92255 14.7028 5.51139 14.1069 6.31307 14.0998C9.14377 14.0927 11.9745 14.0927 14.7981 14.0998C15.2308 14.0998 15.5075 14.3623 15.4933 14.7312C15.4791 15.1001 15.2096 15.3201 14.7555 15.3272C12.0667 15.3272 9.37079 15.3272 6.68198 15.3272C6.12861 15.3272 6.12861 15.3272 6.12861 15.8663C6.12861 16.2494 6.13571 16.6325 6.12861 17.0156C6.12152 17.271 6.21375 17.4058 6.48334 17.3846C6.56138 17.3775 6.64651 17.3846 6.73164 17.3846C16.2453 17.3846 25.752 17.3846 35.2657 17.3846C35.8616 17.3846 35.8616 17.3846 35.8616 16.8099C35.8616 16.4836 35.8474 16.1501 35.8687 15.8238C35.89 15.4619 35.7836 15.2917 35.3863 15.3272C35.0457 15.3555 34.7052 15.3342 34.3647 15.3342C28.9374 15.3342 23.5101 15.3342 18.0899 15.3342C17.4585 15.3342 17.1605 15.1427 17.1534 14.7312C17.1463 14.3126 17.4514 14.1069 18.0686 14.1069C23.8506 14.1069 29.6326 14.1069 35.4146 14.1069C36.5639 14.1069 37.096 14.639 37.1031 15.7812C37.1031 16.2423 37.1102 16.7106 37.1031 17.1717C37.0818 18.0231 36.4859 18.5977 35.6417 18.619C35.3863 18.619 35.138 18.619 34.84 18.619ZM8.38466 18.6403C8.38466 18.8034 8.38466 18.9382 8.38466 19.073C8.38466 23.3794 8.38466 27.6786 8.38466 31.985C8.38466 32.8647 8.68263 33.1627 9.56944 33.1627C17.196 33.1627 24.8155 33.1627 32.4421 33.1627C33.3218 33.1627 33.6126 32.8647 33.6126 31.9708C33.6126 27.6645 33.6126 23.3652 33.6126 19.0588C33.6126 18.9241 33.5985 18.7964 33.5914 18.6403C25.1915 18.6403 16.82 18.6403 8.38466 18.6403Z" fill="black"/>
<path d="M10.8195 6.62222C10.8337 7.77153 9.88308 8.74347 8.71958 8.75766C7.57737 8.77185 6.59833 7.8141 6.58414 6.6577C6.56995 5.50839 7.52771 4.53645 8.68411 4.52226C9.83341 4.51516 10.8054 5.46582 10.8195 6.62222ZM8.71249 5.7567C8.23715 5.7496 7.82567 6.16818 7.82567 6.64351C7.82567 7.10465 8.21587 7.50194 8.67701 7.52322C9.15234 7.53741 9.57801 7.14012 9.58511 6.6577C9.5922 6.18237 9.18782 5.76379 8.71249 5.7567Z" fill="black"/>
<path d="M33.301 4.52234C34.4574 4.52943 35.4151 5.49428 35.408 6.64359C35.4009 7.79999 34.429 8.75775 33.2868 8.75065C32.1304 8.74356 31.1726 7.77871 31.1797 6.6294C31.1797 5.473 32.1446 4.52234 33.301 4.52234ZM33.2939 7.52331C33.7692 7.52331 34.1807 7.10473 34.1665 6.62231C34.1523 6.15407 33.7621 5.76388 33.301 5.75678C32.8256 5.74969 32.4071 6.16117 32.4071 6.6365C32.4071 7.11183 32.8186 7.52331 33.2939 7.52331Z" fill="black"/>
<path d="M25.1856 6.62943C25.1927 5.47303 26.1575 4.52236 27.3139 4.52946C28.4703 4.53655 29.421 5.5014 29.4139 6.6578C29.4068 7.8142 28.4349 8.77196 27.2856 8.76487C26.1292 8.74358 25.1785 7.78583 25.1856 6.62943ZM28.1724 6.63652C28.1724 6.1541 27.768 5.74971 27.2856 5.75681C26.8102 5.7639 26.4058 6.18247 26.4129 6.6578C26.4271 7.11895 26.8173 7.51624 27.2785 7.52333C27.768 7.53043 28.1724 7.11895 28.1724 6.63652Z" fill="black"/>
<path d="M16.8064 6.64362C16.8064 7.80002 15.8487 8.75777 14.6923 8.75777C13.543 8.75777 12.5781 7.79292 12.5781 6.64362C12.5781 5.48721 13.5359 4.52946 14.6923 4.52946C15.8487 4.52236 16.8064 5.48721 16.8064 6.64362ZM15.5791 6.62943C15.572 6.147 15.1534 5.74262 14.6781 5.7568C14.1957 5.77099 13.8055 6.18957 13.8197 6.6649C13.8338 7.13313 14.2311 7.51624 14.6923 7.51624C15.1747 7.52333 15.5791 7.11185 15.5791 6.62943Z" fill="black"/>
<path d="M13.1739 26.7352C12.6064 26.7352 12.3084 26.2457 12.5354 25.8342C12.5851 25.742 12.6631 25.6568 12.7341 25.5788C13.9401 24.2663 15.1533 22.9467 16.3593 21.6343C16.3948 21.5917 16.4303 21.5491 16.4729 21.5137C16.7495 21.2512 17.1043 21.2299 17.3526 21.4569C17.608 21.691 17.6435 22.0457 17.381 22.3295C16.1039 23.7271 14.8198 25.1247 13.5287 26.5082C13.4151 26.643 13.2378 26.6997 13.1739 26.7352Z" fill="black"/>
<path d="M15.0904 21.4569C14.9697 21.6768 14.913 21.8542 14.7995 21.9748C14.2177 22.6274 13.6289 23.266 13.0259 23.9045C12.7137 24.2379 12.3661 24.2663 12.0894 24.0109C11.8127 23.7555 11.8198 23.4078 12.1249 23.0744C12.7208 22.4146 13.3096 21.7477 13.941 21.1305C14.09 20.9886 14.4164 20.9319 14.6292 20.9815C14.8066 21.0241 14.9343 21.2795 15.0904 21.4569Z" fill="black"/>
</svg>
